<svg xmlns="http://www.w3.org/2000/svg" width="197" height="370" aria-hidden="true" data-bbox="-37 -50.216 290 591.236" data-type="ugc"><path fill="#fff" d="m97 363-54.5-82 38.5 2.5 16-2.5 21.5 2.5L152 281z"/><path fill="url(#a)" d="M41.5 210.217c.5 10.5 11.75 18.817 15.676 24.543 7.851 9.818 21.199 14.726 40.828 14.726 11.777 0 20.414-1.636 28.266-4.09 13.347-4.909 28.949-13.319 28.949-27.227 0-8.181-3.934-19.56-11-23.65-6.281-4.091-19.367-8.845-33.5-12.118l-24.34-5.727c-24.34-5.727-38.738-9.115-48.16-15.66C22.516 150.379 7.71 136.587 7.71 112.861c0-21.27 7.852-39.27 22.77-53.177 14.917-13.908 36.902-21.271 65.953-21.271 24.339 0 44.753 6.545 62.027 19.635 17.273 13.09 25.91 32.724 26.695 58.086H157.5c-.785-13.908-17.949-30.27-28.941-35.997C120.707 76.047 102.992 70.5 92 70.5c-12.562 0-32.434 8.591-39.5 13.5S40.716 100.887 42 110c1 7.095 12.043 19.913 20.5 21 4.71 2.454 15.875 2.314 31.578 6.405l40.043 9.817c17.274 4.091 30.621 9.818 39.258 17.181 13.348 11.453 20.414 26.997 20.414 48.268 0 22.089-7.852 40.088-24.34 53.996-15.703 14.726-38.598 14.166-68.433 14.166-22.5 6.5-55.747.575-73.02-13.333-18.844-12.272-25-32.74-25-57.283z"/><path fill-rule="evenodd" d="M96.434 42.373c-28.417 0-49.552 7.18-63.836 20.496-14.436 13.458-22.114 30.935-22.114 51.766 0 22.821 14.138 36.061 29.542 46.494l.013.009.013.009c4.361 3.03 9.975 5.4 17.652 7.738 7.695 2.343 17.26 4.595 29.468 7.468l24.328 5.724.005.001c14.212 3.291 27.687 8.128 34.42 12.49 4.19 2.452 7.153 6.817 9.072 11.319 1.96 4.597 2.995 9.722 2.995 14.056 0 7.67-4.329 13.772-10.267 18.522-5.899 4.719-13.471 8.18-20.283 10.686l-.074.027-.076.024c-8.157 2.549-17.14 4.244-29.288 4.244-20.252 0-34.755-4.801-43.268-15.446C50.5 232.927 40.844 223.118 39 213l-33.205 1.083C6.275 237.26 14.552 255.637 32 267c16.402 13.206 37.686 20.5 67.5 20.5 29.991 0 53.06-6.616 67.83-20.467l.047-.044.05-.042c15.913-13.422 23.593-30.847 23.593-52.502 0-20.868-6.917-35.833-19.68-46.787-8.175-6.968-21.004-12.54-38.017-16.569l-.013-.003-40.079-9.826-.023-.006C77.56 137.178 61.068 133.83 56 131.189l15.35 4.46-15.577-4.526c-3.754-2.173-7.581-5.118-10.62-8.478-3.027-3.347-5.383-7.23-5.952-11.266-.682-4.841-.12-10.554 1.523-15.706 1.622-5.082 4.418-11.048 8.576-13.937C52.98 79.18 63.65 73.937 71 72.5c6.65-2.062 14.545-2 21.5-2 6.044 0 13.319.405 20.121 2.563 6.866 2.177 13.363 4.885 17.467 7.023 5.858 3.052 13.136 8.795 19.047 15.508 5.351 6.077 7.771 13.491 8.865 20.406l24.293-.279c-1.203-23.923-9.691-42.151-25.754-54.324-16.757-12.698-36.483-19.024-60.105-19.024M28.362 60.046C45 44 66.749 38 96.433 38c25.057 0 46.16 6.764 63.95 20.245 17.986 13.63 26.75 33.913 27.546 59.609l.069 2.24h-33.88l-.118-2.09c-.359-6.357-3.787-13.518-9.421-19.916-5.616-6.377-12.416-11.68-17.55-14.354-3.747-1.952-9.904-4.53-16.478-6.615C103.914 75.014 96.948 75 92 75c-5.607 0-11.872-.676-18.038 1.92C67 78 56.352 82.665 52.967 85.017c-2.908 2.02-5.343 6.957-6.864 11.723-1.498 4.697-1.991 9.884-1.389 14.156.431 3.059 2.27 6.242 4.955 9.211 2.658 2.938 6.036 5.544 9.331 7.459 4.38 2.265 20.248 5.446 35.925 9.53l39.994 9.806.013.003c17.526 4.151 31.387 10.032 40.483 17.787l.006.005c13.93 11.953 21.145 28.075 21.145 49.748 0 22.5-8.007 41.059-25.037 55.446C149.5 287.5 125.5 292.5 99.5 292.5c-44.5 0-67.5-18.557-72-21.5C7.862 258.155.227 236.851.227 211.99v-2.094L43 209v3c1.523 10.313 12 19.5 15.571 23.429 7.197 8.95 20.47 13.644 39.433 13.644 11.368 0 19.642-1.567 27.167-3.913 6.514-2.4 13.384-5.589 18.603-9.764 5.2-4.159 8.671-9.216 8.671-15.453 0-3.848-.932-8.503-2.705-12.663-1.804-4.232-4.321-7.58-7.163-9.226l-.064-.036-.061-.04c-5.848-3.809-18.505-8.462-32.515-11.706l-.012-.003-24.432-5.748c-12.09-2.845-21.864-5.144-29.788-7.557-7.956-2.423-14.248-5.016-19.307-8.527-15.998-10.837-31.46-25.18-31.46-49.802 0-21.711 8.024-40.232 23.425-54.59" clip-rule="evenodd"/><path fill="none" stroke="#000" stroke-width="4" d="m46.44 82.804-.384.24-.243.382-3.5 5.5 3.374 2.148 3.257-5.118 7.504-4.69 10.706-4.867 7.027-1.696 3.711-.742.047-.01.046-.01 2-.5.075-.02.072-.024 1.5-.5-1.101-3.841-7.212 1.74-1.211.243-.047.01-.046.01-6 1.5.467 1.9-.81-1.78-11 5-.12.055-.112.07z"/><path fill-rule="evenodd" d="M38 274.994v-65h5v65zM44 22v86h-5V22z" clip-rule="evenodd"/><path fill="none" stroke="#0A9A91" stroke-width=".5" d="m43.855 129.909.23.461M44.513 129.316c.082.376.16.725.33 1.072.136.274.212.56.336.835.239.529.258 1.134.387 1.694.125.537.209 1.049.474 1.537.15.274.182.59.244.892.045.222.169.431.314.6.027.032.09.134.048.019-.057-.16-.091-.322-.14-.483-.05-.173-.124-.439-.266-.555-.2-.161-.228-.516-.304-.748-.228-.692-.506-1.345-.673-2.056a11.4 11.4 0 0 1-.322-2.653 12.2 12.2 0 0 0-.395-3.084M43.229 131.654c.356.859.969 1.684 1.566 2.393.154.183.405.281.62.375.095.043-.021-.209-.053-.309a12 12 0 0 1-.366-1.341c-.038-.192-.154-.725-.015-.587.077.076.267.519.278.545.122.276.236.554.355.831.099.229.206.451.238.7.012.094.057.342-.018.284-.115-.088-.18-.453-.214-.563-.06-.197-.101-.424-.218-.599-.132-.198-.19-.457-.275-.677a14 14 0 0 1-.515-1.743"/><path fill="none" stroke="#000" stroke-linecap="round" stroke-width="3" d="M41.5 113c1 2.5 1.557 5.004 3 6.5 1 1.5 3 3.5 4 4 2 1.5 1.5 1 3.507 2.221 1.493.615 2.493 1.279 2.17.615.823 1.164.547.452 1.14.452"/><path fill-rule="evenodd" d="M159 22v96h-5V22z" clip-rule="evenodd"/><path fill-rule="evenodd" d="M41 42h117v5H41zM41 32h117v5H41zM41 23h117v4H41zM158 220v58h-5v-58z" clip-rule="evenodd"/><path stroke="#000" stroke-width=".1" d="M154.601 277.895c-1.195-.521-2.548.146-3.046 1.33l-54.333 79.454-.332-.546-53.09-79.937c-.521-1.195-1.887-1.888-3.072-1.389s-6.458-4.174-8.76-4.174l56.5 85.5c.35 1.023 7.404 10.99 8.424 11 .68.007 5.69-7.899 6.076-8.5 1.605-2.5.505-.505.502-.845l59.998-88.655c.499-1.185-7.671 7.283-8.866 6.762Z"/><path stroke="#000" stroke-width=".5" d="M60.5 272.5c-3.5-1.5-21.088-7.185-21.217 4.271-.016 1.348.984 2.348 2.331 2.332 1.348-.015 2.37-1.037 2.386-2.385 3-4.218 11-1.218 16.5.282 9 2 17.388 5.787 17.289 14.548-.015 1.348.984 2.347 2.332 2.332.674-.008 1.181-.182 1.692-.693s.856-1.189.693-1.692c.13-11.457-16.006-16.995-22.005-18.995Z"/><path stroke="#000" stroke-width=".5" d="M98.31 276.327c-11.69.069-20.427 3.76-20.496 15.45-.008 1.375 1.018 2.401 2.393 2.393s2.413-1.046 2.421-2.421c.053-8.94 6.715-10.556 15.654-10.608s17.405 1.474 17.353 10.414c-.008 1.375 1.017 2.4 2.392 2.392.688-.004 1.205-.179 1.724-.698s.866-1.208.697-1.723c.069-11.69-10.447-15.268-22.137-15.199Z"/><path stroke="#000" stroke-width=".5" d="M136 270c-10.99.213-19.237 10.573-19.449 21.562-.025 1.293.925 2.244 2.218 2.219s2.282-1.013 2.307-2.306c.162-8.404 6.52-16.812 14.924-16.975 4.249-.082 11.5-2.5 15.445 4.294.649 1.118.925 2.244 2.218 2.219.647-.013 1.135-.184 1.629-.678s.83-1.147.678-1.628C156.182 267.717 136.5 270 136 270Z"/><path fill-rule="evenodd" d="M82 250v40h-5v-40zM121 250v40h-5v-40zM86 46v27h-5V46zM121 46v30h-5V46z" clip-rule="evenodd"/><path d="m122.602 325.967-52.203-.301c-1.365-.008 1.094.469 1.102 1.834s-1.738.861-.373.869H120.5c.682.004 2.492-.169 3.001-.678.173.513.339-.339 0 0-.008-1.364.466-1.716-.899-1.724"/><path fill="none" stroke="#000" stroke-width="3" d="M123.501 327.691c-.509.509-2.319.682-3.001.678H71.128c-1.365-.008.38.496.373-.869s-2.467-1.842-1.102-1.834l52.203.301c1.365.008.891.36.899 1.724Zm0 0c.339-.339.173.513 0 0Z"/><path fill="none" stroke="#fff" stroke-linecap="round" stroke-width="3" d="M59.943 291.952c.37.386.746.747 1.157 1.088.185.153.343.353.544.483.08.052.149.105.216.172.04.04-.042-.106-.054-.162-.085-.387-.024-.852.46-.742.275.063.517.195.77.314.153.071.352.222.514.259.675.154 1.428.071 2.107.016.816-.067 1.662.108 2.477.137 1.53.055 3.055.228 4.587.247.84.01 1.67-.065 2.507-.065"/><path fill="none" stroke="#fff" stroke-linecap="round" d="M76.648 293.335c.229.157.37.416.59.583.116.088.268.132.392.21.036.022-.082-.023-.12-.043a.48.48 0 0 1-.256-.309c-.077-.258-.06-1.074-.06-.805 0 .168-.041.332.108.437.085.06.196.095.275.154.122.09.273.394.344.538M48.443 283.982c.809.321 1.21 1.383 1.618 2.071.284.48.602.935.9 1.405.235.372.441.76.693 1.122.525.756 1.06 1.493 1.613 2.228.426.564.764 1.203 1.222 1.739.482.565.817 1.226 1.27 1.807M49.644 284.965c1.273 1.309 2.406 2.749 3.742 3.999 1.595 1.492 3.475 2.721 5.291 3.922a86 86 0 0 0 4.586 2.805c.445.256 1.172.635 1.52.92M52.628 288.422a202 202 0 0 0 6.063 5.761c.87.793 1.888 1.629 2.635 2.501M53.356 289.696c1.879 1.848 3.67 3.782 5.554 5.623.233.227.977.853.706.673M57.505 292.316c.92.75 1.81 1.537 2.701 2.321q.218.19.43.383c.039.034.097.06.108.111.016.076-.146-.056-.218-.085"/><path fill="none" stroke="#fff" stroke-linecap="round" d="M54.156 290.388c.304.533.703 1.039 1.066 1.528.808 1.092 1.673 2.144 2.454 3.255q.15.212.29.429c.05.079.225.271.133.251-.14-.031-.386-.35-.485-.441"/><path fill="none" stroke="#fff" stroke-linecap="round" d="M52.737 288.786c.317.643.638 1.273 1.096 1.83.44.535.937 1.02 1.407 1.526a12.4 12.4 0 0 1 1.478 1.937c.114.185.274.447.36.657.022.054.046.11.047.168.002.123-.09.013-.13.069"/><path fill="none" stroke="#fff" d="m49.423 285.707 9.066 13.301M48.256 283.875l1.203 1.884M55 287h.945"/><path fill="none" stroke="#fff" stroke-linecap="round" d="M56.084 288.825c.194.396.545.66.967.786.148.043.479.116.649.014.043-.026.077-.09.063-.139-.045-.159-.342-.317-.461-.35a1.3 1.3 0 0 0-.837.063 1 1 0 0 0-.334.24c-.177.202-.206.392-.013.597.194.205.49.266.757.267a.9.9 0 0 0 .34-.058c.1-.041.234-.179.144-.305-.088-.121-.319-.118-.428-.058a.55.55 0 0 0-.237.238c-.16.341-.049.632.198.906.325.36.749.557 1.237.555.204 0 .418-.043.593-.148a.736.736 0 0 0 .305-.851.6.6 0 0 0-.643-.389.46.46 0 0 0-.282.181c-.14.194-.02.37.18.422a.5.5 0 0 0 .289-.031c.298-.114.032-.166-.047-.144a.44.44 0 0 0-.237.128c-.026.032-.002.109.038.117.202.037.412.003.618.003 1.122.005 1.072-.033 2.194.117.206.028.407.088.612.116.04.006-.072-.034-.11-.047q-.254-.086-.51-.166c-.149-.047-.301-.081-.445-.139-.026-.01-.064-.035-.056-.061.016-.048.122-.055.111-.105-.056-.258-.6-.503-.716-.567-.648-.354-.441-.194-.293-.14.033.011.131.045.1.03-.238-.115-1.037-.437-1.158-.486l-.435-.173c.058.027.238.089.174.085-.134-.01-.26-.066-.39-.1-.39-.101-.778-.217-1.171-.305-.828-.185-1.428-.33-2.247-.298-.095.003-.18.057-.273.078-.053.013.107-.026.157-.051.14-.069.267-.164.41-.228.083-.037.717-.331.92-.204.059.036 0 .142-.025.207-.249.677-.08-.044-.151.342-.022.121-.08.06-.25.138-.089.042-.723.264-.465.505.043.041.29.154.354.066.012-.017.01-.04.009-.06 0-.056-.01-.111-.017-.167"/><path fill="none" stroke="#fff" stroke-linecap="round" d="M54.611 289.249c.164.063.332.117.491.19.468.214.742.394 1.172.692.198.137.387.286.583.427.428.307.597.439 1.067.674.463.231.955.398 1.43.599.044.018.123.052.173.084M58.78 289.867l1.508.625M57.134 291.405q.773.497 1.574.951c.09.051.167.095.258.136.046.022.018.016.029.005M56.523 286.295c.099.065.193.121.302.165.056.022.108.05.162.075.293.135.592.254.892.374q.216.087.438.159c.321.105.636.222.954.336 1.33.477 2.7.846 4.064 1.213M56.207 286.497c.09.182.175.358.309.515a2.5 2.5 0 0 0 .498.44c.314.227.674.447 1.001.648.742.456 1.492.901 2.27 1.293.762.385 1.555.696 2.347 1.013M58.024 287.33c.214.222.485.371.753.52.971.537 2 .958 2.983 1.47.406.211.794.449 1.192.675.109.061.219.122.333.174M61.496 288.581c.633.346 1.264.699 1.908 1.025.162.082.334.155.492.239M59.714 289.759c.594.404 1.228.741 1.867 1.067.22.111.078.033.016-.003M54.733 286.339a236 236 0 0 0 3.478 2.175q.206.127.416.253c.005.003-.017-.01-.013-.014M53.642 286.382c1.23.722 2.452 1.461 3.685 2.181.121.07.433.255.61.344.1.05.052.023.038-.01M52.83 286.346c.229.29.257.342.554.633.596.584 1.245 1.113 1.904 1.625.322.25.527.4.838.623l.14.098c.202.136-.04-.028.02.003M52.275 286.281c.072.315.205.59.37.87.103.174.209.347.33.509.261.353.523.618.857.901.134.115.278.217.42.322.11.081.355.258.506.334.113.057.06-.013.069-.076"/><path fill="none" stroke="#fff" stroke-linecap="round" stroke-width=".1" d="M130.235 284.544c.205 1.711.178 3.425.434 5.128"/><path fill="none" stroke="#fff" stroke-linecap="round" d="M133.052 281.944c.525 1.666.382 3.507.377 5.232-.001.519-.169 1.061-.016 1.557.104.339.045-.707.08-1.059.058-.569.149-1.294.233-1.862.031-.21.061-.421.104-.63.016-.076.013-.269.072-.22.312.254.043 3.314.967 1.512.175-.34.782-1.951 1.012-2.307.49-.757.529.169.573.506.052.387.019.783.065 1.171.023.201-.058.573.144.59.23.019.31-.346.433-.542.27-.429.471-.9.743-1.328.295-.464 1.001-1.5 1.288-1.031.263.432.126 2.063.12 2.412-.006.375-.217 1.155.157 1.115.288-.031.841-.862 1.015-1.071M144.68 286.494c0 .022-.033.767.144.707.422-.144.885-.829 1.172-1.14.475-.516.65-1.24 1.276-1.553.294-.147.134-.417.241-.654.038-.085.365-.158.453-.293.247-.376.397-.795.606-1.191.275-.521.689-.969.891-1.525.292-.805.834-1.48 1.067-2.295M122.434 291.261c.179 0-.499-.075-.473-.253.057-.403.351-.879.469-1.292.2-.7-.01-1.471.193-2.146.084-.282.172-.509.172-.803 0-.166-.02-.662 0-.497.013.099.003.646.121.662.136.018.307-.543.313-.654.015-.312-.412.009-.506.072"/><path fill="none" stroke="#fff" stroke-linecap="round" d="M126.263 284.761c.113 1.057.259 2.24.778 3.186.409.745.58.149.971-.024.216-.096.505.187.706.064.529-.323 1.926-2.283 2.063-2.411 1.347-1.268 1.355-1.133 2.756-.281.451.273.764.825 1.28.927 1.255.246 2.096-1.166 2.777-1.79.693-.634.96-1.222 1.549-.289.143.227.279 1.346.859 1.396.083.008 1.244-.627 1.324-.634.571-.048.712 1.094 1.268.61.332-.288.732-1.201.951-1.548.389-.618.126-.274.429-.177.708.227 1.458-1.851 1.717-2.351"/><path fill="none" stroke="#fff" stroke-linecap="round" stroke-width="3" d="M132.402 284.978c-.536 0-.891 1.973-.923 2.391-.018.232-.059.715.144.899.5.45 1.183-.805 1.284-1.055.404-1.002.536-2.199.538-3.271 0-.206.049-.45-.076-.614-.064-.082-.194.11-.237.205-.159.348-.257.722-.357 1.091-.26.963-.838 2.756-.173 3.716.308.444 1.031.425 1.445.249.66-.28 1.233-.974 1.565-1.573.577-1.042.787-2.268.943-3.431q.043-.338.076-.678c.013-.131.104-.503.032-.393-.216.332-.416.945-.558 1.28-.379.9-.747 1.842-.758 2.833-.004.379.042.381.201.084.637-1.194 1.607-1.869 2.6-2.761q.547-.488 1.063-1.011c.479-.486.842-1.098 1.392-1.5.191-.14.047.482-.028.706-.265.788-.529 1.361-.886 2.122-.553 1.178-2.326 4.653-1.718 3.503 1.163-2.196 2.632-4.381 4.47-6.075.582-.536.779-.421.562.406-.338 1.285-1.024 2.391-1.517 3.607-.161.396.601-.61.875-.939.745-.897 1.531-1.754 2.287-2.64.462-.542.888-1.112 1.344-1.658.186-.222.559-.781.847-.934.365-.195-.192.805-.329 1.195-.518 1.469-1.225 2.593-2.452 3.58a10 10 0 0 1-2.492 1.476c-.589.242-.179.105.105 0 .94-.349 1.684-.924 2.528-1.432.272-.164.554-.336.842-.47.304-.141-.502.447-.774.642a30 30 0 0 1-3.343 2.055c-.692.371-1.13.573-1.797.914-.085.044-.176.079-.253.137-.035.026.084-.024.124-.04 1.383-.575 2.735-1.226 4.109-1.822.982-.426 1.976-.786 2.833-1.44.717-.548 1.217-.924 1.14-1.882-.027-.327.009-.621.06-.943.053-.336.261-.565.357-.879.113-.369.037-.87.185-1.208.126-.29.561-.402.75-.622.17-.198.237-.376.509-.393.128-.008-.389-.404-.505-.433"/><path fill="none" stroke="#fff" stroke-linecap="round" stroke-width="3" d="M143.38 279.922c.47-.211 1.128-.626 1.649-.626.594 0 1.227.221 1.826.281.637.064 1.182.335 1.797.489M125.902 296.389c.099-2.661.071-5.432 1.163-7.92.526-1.199 1.446-2.254 2.167-3.339.17-.255.307-.81.594-.702.467.175.024 2.526.008 2.628-.267 1.671-.746 3.446-1.449 4.996-.076.168-.127.304-.156.04-.07-.64.085-.39-.137-1.2-.231-.846-.509-1.325-.971-2.086-.357-.59-1.073-1.319-1.139-2.063-.016-.183.14-1.412.425-1.412.353 0 .81.549.185.61-.406.039-.836-.034-1.236-.097-.472-.074-.451.016-.546.506-.234 1.211-.718 2.346-.778 3.591-.01.19.131 1.404-.113 1.465s-.304.304-.505.389c-.144.061-.286-.46-.361-.542-.088-.095-.207-.062-.257-.2-.074-.202-.072-.435-.072-.646 0-.411.086-.834.144-1.24.143-1.001.184-1.923.738-2.801a7.3 7.3 0 0 1 1.208-1.416c.065-.061.474-.324.229-.406-.352-.117-.466.171-.542.466-.293 1.142-.04 2.346-.405 3.491-.207.648-.304 1.349-.578 1.966"/><path fill="none" stroke="#fff" stroke-linecap="round" stroke-width="3" d="M124.777 287.399c.01.064.029-.127.044-.191.066-.273.163-.527.304-.771.144-.248.564-.653.481-.981-.058-.226-.279-.278-.239-.54.033-.216.083-.408.092-.629.001-.031.057-.221.015-.229-.099-.02-.18.047-.267.069-.08.021-.077-.1-.108-.14-.074-.097-.207-.005-.11-.189.038-.073.147-.147.166-.224.039-.154-.272.127-.284.14-.113.12.089-.104.118-.155.045-.08.11-.148.157-.229.065-.109.168-.18.245-.279.044-.057.002-.079.015-.135.063-.268.349-.481.516-.689.12-.151.154-.348.264-.504.181-.255.376-.488.596-.71.163-.165.339-.317.499-.484.091-.095.142-.233.225-.337.327-.408.693-.697 1.139-.962.149-.089.302-.182.441-.287.33-.247.825-.408 1.225-.497.236-.053.492-.088.733-.046.831.147 1.499.935 1.94 1.597.433.651.691 1.341.689 2.128-.001.436-.08 1.124-.695.992-.63-.135-1.134-.632-1.458-1.161-.288-.471-.261-1.032-.94-1.045-.51-.009-.919.211-1.285.549a8 8 0 0 0-.765.938c-.008.049.034.113.083.124.381.084 1.373-.146 1.559-.183 1.847-.373 3.645-.937 5.485-1.34 2.149-.47 4.351-.759 6.537-1.002"/><path fill="none" stroke="#fff" stroke-linecap="round" stroke-width="3" d="M130.465 281.113a29 29 0 0 1 2.343-1.319c1.011-.519 2.022-1.086 3.088-1.486 2.252-.846 4.706-1.025 7.093-.939.713.026 1.457.019 2.156.177.392.088.774.208 1.17.277.468.081.942.117 1.417.124.307.004.609-.046.913-.046.141 0-.016-.15-.053-.225-.079-.161-.303-.235-.453-.334-.281-.184-.533-.38-.802-.578-.308-.226-.722-.344-1.066-.512-.213-.104-.411-.217-.644-.269-.344-.077-.699-.12-1.047-.173-.712-.107-1.441-.091-2.159-.119-.726-.028-1.489-.117-2.209.014-.243.044-.472.14-.718.167-.285.032-.57.035-.856.049-.719.036-1.432.153-2.147.239-.532.063-1.064.115-1.595.195-.438.065-.878.143-1.311.239-.405.089-.787.242-1.177.384-.801.29-1.502.705-2.239 1.123-.69.391-1.228.83-1.718 1.46M105.985 294.529c.905-.926 1.832-1.822 2.564-2.892.025-.036.078-.163.132-.082.111.164.154.388.349.486.176.087.39.035.568-.003.257-.055.512-.115.771-.161q.44-.079.874-.183c.136-.033.268-.044.408-.034.224.015.393-.033.607-.086.219-.055.443-.067.662-.12.21-.051.489-.014.703.008.076.008-.023.151-.049.18-.051.06-.044.07-.049.156a.5.5 0 0 1-.022.136c-.01.019-.084-.168-.086-.172-.056-.109-.148-.183-.223-.278a1.9 1.9 0 0 1-.323-.637c-.008-.031.026-.015.04-.017.04-.003.031-.144.032-.165.023-.355.07-.698.014-1.054a3 3 0 0 1-.048-.497c0-.22.033-.441.015-.66-.011-.142-.03-.28-.035-.422-.004-.104-.049-.184.084-.194.052-.004.097-.005.125.046.019.034.051.108-.005.047-.038-.041-.049-.186-.017-.232.039-.055.08.004.011.06-.079.065-.072.239-.069.326.008.216.151.34.187.548.11.637.133 1.318-.045 1.942"/><path fill="none" stroke="#fff" stroke-linecap="round" stroke-width="3" d="M112.061 286.718c.191.186.346.437.501.654s.294.459.42.696c.129.243.184.508.274.765.08.227.27.382.354.603.081.215.091.452.121.677.028.209.081.413.114.621.098.619.125 1.241.125 1.866"/><path fill="none" stroke="#fff" stroke-linecap="round" stroke-width="3" d="M110.672 286.004c.158.188.317.373.501.536.161.142.337.265.5.405.282.242.502.545.765.806a4 4 0 0 0 1.03.722M111.579 289.052c-.104-.028-.204-.088-.312-.084-.457.016-.983.253-1.365.455-.211.112-.405.253-.601.389-.054.038-.142.198-.146.132-.025-.448.587-.178.035-.826-.793-.929-2.463-.157-3.206.364-.255.179-1.124.928-.875 1.488.217.483 1.026.069 1.188-.06.252-.202.448-.474.608-.755.229-.401.563-1.185.209-1.67-.424-.581-1.335-.345-1.834-.183-.873.283-1.508.693-2.026 1.453-.455.666-.485 1.453-.292 2.205.128.497.401.985.613 1.45M110.749 287.74c-.97-.185-1.93-.359-2.916-.438-.38-.03-.754-.037-1.134-.044"/><path fill="none" stroke="#fff" stroke-linecap="round" d="M87.462 284.279c-.147-.147.132-.396.213-.521.036-.056.048-.109.02-.171-.005-.01-.038-.047-.034-.047.08 0 .238.035.298-.022.099-.093.25-.101.366-.162a5 5 0 0 1 .52-.226c.153-.057.303-.128.462-.171.21-.056.418-.121.63-.169.307-.069.624-.096.93-.176.178-.048.35-.12.527-.176q.437-.138.89-.205c.642-.097 1.278-.235 1.924-.31.164-.019.33-.019.495-.034.461-.041.915-.095 1.379-.104.419-.008.838-.016 1.257-.035.319-.014.645-.048.964-.012.363.041.666.261 1.02.339"/><path fill="none" stroke="#fff" stroke-linecap="round" d="M88.655 283.838c.223-.187.427-.356.696-.47q.246-.106.46-.265c.192-.142.347-.307.563-.418.3-.155.64-.242.966-.324M106.607 291.216c-2.015-.217-4.099.834-5.884 1.641-.379.171-1.163.773-1.196.358-.023-.282.136-.571.067-.845-.19-.76-.688-1.369-1.53-1.431-.903-.067-.79.687-.221 1.011.576.329 1.736.476 2.189-.253.545-.875-.715-1.328-1.196-1.35a2.44 2.44 0 0 0-1.332.351c-1.436.864.538.878.727.839.777-.16 2.896-.979 3.257-1.986.274-.765-1.646-.575-2.418-.321-.571.189-2.042 1.147-1.443 1.086.368-.037.712-.228 1.024-.426.257-.162.577-.341.654-.635.04-.154-.33-.112-.475-.049-.352.151-1.578.883-1.474 1.554.033.218.383.276.604.271.331-.007 1.192-.567.876-.468-.347.109-1.082.73-.728.814.4.094.832-.045 1.221-.179.715-.246 2.574-1.124 1.844-1.32-.579-.155-2.036.86-2.319 1.129-.422.402 1.123-.33 1.653-.574.415-.19.814-.451 1.264-.524.105-.017.153.211.099.302-.071.121-.337.312-.382.179-.15-.437.567-1.525.777-1.702.357-.3-.523 3.013-.827 1.899-.07-.257.083-1.007-.542-.727-.194.086-1.823 1.631-.487-.074.242-.31.919-.951 1.029-.574.153.52-.231.514-.524.537-.912.071-.304-.171-1.276.481-.187.125-.333.349-.556.382-.267.04-.298-.555-.567-.58-.695-.063-.493.565-1.16.592-.506.021.46-1.933.18-1.511-.29.434-.43.951-.685 1.406-.503.9.034-.588 0-.573-.425.18-2.013 2.782-1.184.58 1.187-3.154-1.103 1.776-.728-.21.05-.265.23-.508.222-.777-.002-.088-.181.046-.24.111-.019.02-1.18 1.581-1.357 1.684-.466.269.366-1.021.647-1.481.13-.211.241-.455.444-.598.025-.017-.121.829-.234.691-.096-.118.079-.294.13-.438.101-.288.25-.561.326-.857.018-.068.002-.244-.055-.204-.26.182-.42.477-.648.697-.386.374-1.05 1.155-1.418.765-.488-.516.331-1.511-.648-.278-1.44 1.816.427-2.841-.561-.326-1.197 3.044 1.996-1.492 1.912.752-.023.611-.345.962-.086.351.142-.337.609-1.319.53-.962s-.488 1.25-.697 1.53c-.178.239-.05-.935-.055-.931-.224.173-.894 1.419-.963 1.554-.328.641.042.119.136-.025.284-.434.187-.315-.062-.136-.11.081-.197.259-.333.241-.093-.013.009-.199.062-.278q.37-.542.82-1.017c1.083-1.146 2.315-2.249 3.941-2.387.941-.08 1.88-.027 2.825-.049.12-.003.961.004.271-.161-.315-.075-.636-.12-.956-.172-.497-.082-1.95-.03-1.492-.241.177-.082.39 0 .586.006.477.016.954.042 1.43.062q1.376.057 2.751.111"/><path fill="none" stroke="#fff" stroke-linecap="round" stroke-width="3" d="M101.834 297.655c.698-1.173.193-3.454-.592-4.453-.832-1.059-1.95-1.301-3.195-.863-.207.073-2.053 1.129-1.702 1.949.286.668 1.59-.136 2.072-.679.684-.768 1.205-2.027.876-3.083-.867-2.789-5.446.948-3.522 2.941 1.682 1.742 4.949-.029 6.279-1.276 1.122-1.052 2.227-3.114.327-4.083-.682-.348-1.414-.266-2.122-.049-.035.01-1.665.624-1.714 1.073-.114 1.045 5.04-1.437.012.66-1.897.79-3.018 1.374-4.767 2.479-.943.595-1.703 1.53-2.757 1.893-.465.161.267-.96.53-1.375 1.188-1.873.642-.882 1.758-2.485.492-.708-.056-.174-.469.16-.49.396-1.837 1.562-2.386 1.912-.812.517-.757.213-.352-.524.751-1.368 1.817-2.599 2.88-3.732 1.133-1.208-2.213 2.465-3.33 3.688-.788.863.166-.065.53-.382 1.45-1.261 3.037-2.977 4.89-3.651.851-.309 1.248-.143 2.011.142.168.062.34.125.488.228.049.034-.121.002-.18-.012-.714-.179-1.376-.412-2.115-.469"/><path fill="none" stroke="#fff" stroke-linecap="round" stroke-width="3" d="M99.724 293.77c-.423-.635-1.547-3.033-.666-3.621 1.088-.725 3.304 1.858 3.997 2.51M92.153 285.915c-.815.778-1.724 1.521-2.379 2.449-.567.803-1.159 1.629-1.61 2.505-.53 1.031-.91 2.121-1.249 3.228-.198.643-.161.541-.303 1.054-.072.264-.033 0-.033-.064M88.967 285.66c-.791.961-1.418 1.995-2.033 3.081-.862 1.52-1.678 3.062-2.155 4.749-.202.71-.358 1.429-.515 2.15-.029.129-.054.26-.087.389-.012.047 0 .133-.048.138-.044.004-.01-.089-.01-.133-.001-.093.014-.185.007-.278"/><path fill="none" stroke="#fff" stroke-linecap="round" stroke-width="3" d="M90.178 289.832c-.683.114-1.32.217-2 .025a4.8 4.8 0 0 1-1.253-.57c-.25-.159-.536-.243-.792-.394a.53.53 0 0 1-.262-.317c-.062-.204-.117-.28-.292-.396-.107-.072-.436-.205-.317-.368.103-.141.266-.337.01-.337"/><path fill="none" stroke="#fff" stroke-linecap="round" stroke-width="3" d="M87.502 293.272c-.56-.224-.98-.687-1.348-1.146-.282-.353-.369-.799-.4-1.241-.026-.372-.277-.78-.467-1.097-.196-.327-.371-.641-.326-1.032.042-.358.096-.696.248-1.026"/><path fill="none" stroke="#fff" stroke-linecap="round" stroke-width="3" d="M85.273 295.852c-.217-.379-.298-.915-.368-1.341a3.8 3.8 0 0 1-.029-1c.022-.2.222-1.058.012-1.189-.123-.077-.14-.083-.182-.253-.032-.127-.079-.218-.132-.335-.035-.075-.119-.112-.147-.207-.028-.093-.014-.203-.014-.299 0-.566.198-1.099.304-1.651a3.7 3.7 0 0 1 .237-.803c.108-.252.181-.514.31-.759.238-.455.666-.792 1.028-1.145M74.189 292.221c.175-.419.327-.878.782-1.076a2 2 0 0 0 .23-.12c.133-.086.31-.039.456-.096.207-.08.142-.214.19-.378.024-.086.109.002.061-.177-.037-.144-.109-.267-.152-.404-.085-.274-.09-.562-.212-.831-.162-.356-.4-.693-.4-1.105 0-.102-.046-.164-.08-.258-.058-.161-.086-.325-.127-.49-.038-.151-.169-.442-.08-.575M71.482 284.131q.101 2.475.205 4.951c.023.538.022 2.145.097 1.612.107-.764.24-1.511.393-2.269.096-.475.181-.949.239-1.431.03-.256.013-.58.117-.823.17-.402.533.438.564.559.152.591-.2 1.081-.207 1.66-.007.54.43.891.572 1.375.044.151.18.61.076.74-.367.456-1.582.073-1.887-.039-2.106-.775-3.895-2.175-5.365-3.847-1.093-1.244-1.082-1.481-1.877-2.702-.104-.159-.166-.378-.338-.458-.113-.053.06.245.119.355.161.31.328.62.536.901.829 1.124 1.905 2.229 3.257 2.7.263.092.552.159.827.117.47-.072.399-.554.215-.821-.554-.808-1.728-1.351-2.686-1.364a2.35 2.35 0 0 0-.973.182c-.402.177-1.05.818-1.175 1.27-.336 1.224 1.82 1.081 2.302 1.053.563-.032 1.13-.091 1.673-.239.45-.123 1.694-.546 1.769-1.291.027-.27-.171-.538-.366-.726-.603-.58-1.489-.705-2.276-.704-1.333.002-2.596.502-3.696 1.224-.25.164-.476.361-.7.558-.157.139-.279.318-.443.451-.065.052-.171.151-.232.094-.116-.109-.123-.295-.15-.451-.118-.681-.117-1.582-.206-2.255-.033-.25-.018-.531-.159-.741-.213-.318-.617.483-.81.814-.195.333-.367.679-.552 1.017-.143.261-.27.53-.432.779-.069.106-.13.291-.255.279-.246-.023.028-1.974.028-1.98.026-.301.057-.602.068-.904.092-2.623-.057.852-.089-1.238M55.46 280.245c1.162.692 2.261 1.247 3.57 1.619 1.19.339 2.42.546 3.64.742 1.323.212 2.641.255 3.974.35.904.065 1.8.194 2.702.28.574.054 1.15.081 1.725.131.205.017.345.02.506.127"/><path fill="none" stroke="#fff" stroke-linecap="round" stroke-width="3" d="M47.275 277.761c2.032 1.35 4.103 2.631 6.162 3.939 2.917 1.854 5.844 3.69 8.776 5.521M46.734 279.163c2.076 1.8 4.095 3.716 6.374 5.262a60 60 0 0 0 6.462 3.847"/><path fill="none" stroke="#fff" d="M45.482 279.157c.096.267.172.561.343.793.075.102.144.207.219.309.105.145.178.306.253.468.1.219.22.421.337.632.053.096.104.201.171.289.1.128.183.269.286.397.336.418.741.731 1.2 1.006.232.138.474.256.712.382 2.629 1.383-1.572-.825.214.118.102.054.023.008.052-.02M48.683 277.277c.26.254.504.517.778.759.52.457.813.693 1.435 1.039.709.395 1.36.64 2.125.922a48 48 0 0 0 3.277 1.074c.163.048.327.094.493.129.062.013.133.043.19.015.083-.042-.134-.135-.178-.218"/><path fill="none" stroke="#fff" d="M49.936 278.464c2.086.522 4.15 1.133 6.23 1.68.269.071.465.125.714.175.087.017.043.023.056-.002M55.456 276.384c.125.009.246.076.371.099.157.029.282.109.428.165.173.065.358.055.534.098.398.098.8.18 1.193.297.363.108.726.191 1.093.281.227.055.45.122.672.193.355.114.714.21 1.072.313.344.098.691.204 1.04.282.267.06.542.072.81.127.33.067.658.155.983.243.078.021.16.037.237.062.02.006-.04.012-.06.013"/><path fill="none" stroke="#fff" d="M49.402 276.53c.164-.029.325-.094.483-.142.116-.035.225-.067.332-.124.114-.06.206-.108.337-.128.249-.037.5-.05.75-.091.341-.056.69-.061 1.033-.095.21-.02.414-.033.625-.033.174 0 .351.018.522.048.217.037.435.027.652.053.162.019.323.032.48.086s.298.116.462.154c.291.066.577.168.866.245q.462.124.925.238c.16.038.311.095.467.144.173.055.346.091.507.179"/><path fill="none" stroke="#fff" d="M48.709 277.264c-.155-.423-.122-.94.051-1.356.058-.139.161-.152.28-.222.089-.053.182-.124.276-.166.097-.043.22.017.317.031.477.068.952-.043 1.43-.001.254.022.515.007.77.007.252 0 .465.129.709.165.11.017.224.008.333.028q.179.033.356.074c.45.101.904.222 1.345.36M45.523 275.997c0 .19-.04.375-.04.566 0 .389-.032.761-.114 1.141a3 3 0 0 0-.073.615c0 .132 0 .224.074.332.05.072.105.139.148.216.084.148.219.265.325.397"/><path fill="none" stroke="#fff" stroke-linecap="round" d="M48.736 277.077c.61.287.508.264 1.366.488 1.845.481 3.727.821 5.606 1.133 1.244.206 1.085.166 2.05.311.257.038.183.019.299.055"/><path fill="none" stroke="#fff" stroke-linecap="round" d="M47.163 280.384c-.4-.198-.8-.402-1.212-.576-.128-.054-.241-.07-.321-.19-.078-.116-.084-.207-.097-.339a1 1 0 0 0-.063-.263c-.066-.169-.074-.347-.136-.518-.098-.27-.1-.565-.123-.848-.02-.235.057-.485.128-.706.069-.213.152-.42.29-.599.021-.029.088-.075.093-.112.007-.055-.17.036-.175.014-.014-.064.112-.149.155-.171.098-.052.196-.099.288-.161.125-.085.293-.118.431-.172.242-.094.47-.184.724-.244.156-.038.314-.067.47-.105.132-.032.26-.082.397-.098.444-.051.903-.05 1.35-.062.19-.005.37-.003.561.017.277.029.557.03.834.062.45.053.889.169 1.34.217.253.027.46.111.693.2"/><path fill="none" stroke="#fff" stroke-linecap="round" d="M45.936 276.704c.438-.029.868-.071 1.303-.138.456-.071.91-.145 1.37-.188.353-.033.707-.045 1.06-.061M46.976 276.064q1.14-.084 2.28-.16M47.843 276.544c.913.089 1.825.201 2.735.324 2.238.302 4.468.652 6.667 1.18 1.245.298 2.492.659 3.69 1.12q.143.054.282.118c.368.174-.055-.023.026.045"/><path fill="none" stroke="#fff" stroke-linecap="round" d="M51.283 276.49c1.79.133 3.587.382 5.323.846.699.187 1.39.396 2.079.615a87 87 0 0 1 2.866.954c.796.284 1.578.597 2.344.953q.183.087.363.176c.01.005-.004 0-.001.003M51.843 278.171c1.804.442 3.609.879 5.423 1.28 1.252.277 2.516.522 3.748.882.451.132 1.773.626 1.322.491M53.31 277.651c1.363.529 2.782.888 4.204 1.223 1.102.26 2.227.419 3.302.778.812.271 1.62.556 2.405.895.2.086.419.185.614.29.247.133.062.028.062.08M61.283 277.931c.185.114.366.201.575.263.162.048.327.081.489.126q.192.055.39.088c.3.048.611.101.9.197.252.084.517.093.77.167.372.108.728.25 1.08.406.156.068.334.088.496.136.25.074.504.137.75.225.312.112.618.24.933.341.12.039.23.095.342.154q.437.231.861.483c.392.235.798.436 1.2.651.546.29 1.077.607 1.623.895.308.163.605.331.893.527q.403.276.786.576c.032.025.159.12.2.169.038.046-.023.038-.047.049M63.257 279.117c.345.162.687.411 1.002.608.925.58 1.857 1.147 2.78 1.729.567.357 1.124.728 1.686 1.092l.183.114-.038-.023"/><path fill="none" stroke="#fff" stroke-linecap="round" d="M64.696 279.157c1.21.741 2.435 1.459 3.65 2.193.516.312 1.043.635 1.564.941M66.884 280.264q1.36.593 2.687 1.259c.24.12.496.255.74.368M61.644 279.731a126 126 0 0 0 4.588 2.453c.25.128.496.266.754.376.05.022-.095-.055-.142-.083M63.55 279.851c1.15.608 2.286 1.241 3.427 1.866M62.123 280.424c.756.492 1.508.988 2.268 1.473.51.326.076.087.159.087"/><path d="m97.5 361.5-20.155-31.75H118.5z"/><path fill="#424040" d="m93 353.5-15.655-23.75 6.655-1h9z"/><mask id="b" fill="#fff"><path d="M44 90V47h37v24.282L74.32 72.8 66.5 75l-5.542 1.847L56 79l-4.292 2.4L50 82.5l-2 2z"/></mask><path fill="url(#c)" d="M44 47v-80h-80v80zm0 43h-80v246.015l144.699-198.961zm4-5.5L-8.569 27.932l-4.438 4.438-3.692 5.076zm12.958-7.653L35.662.952l-3.338 1.112-3.228 1.402zM66.5 75 44.833-2.01l-1.828.514-1.801.6zm7.82-2.2L56.596-5.212l-1.985.45-1.96.552zM81 71.282l17.722 78.013L161 135.147V71.282zM81 47h80v-80H81zM50 82.5 6.69 15.238l-7.202 4.637-6.057 6.057zm1.708-1.1L12.661 11.576l-2.171 1.215-2.092 1.347zM56 79 24.138 5.619l-3.682 1.598-3.503 1.96zm-92-32v43h160V47zm144.699 90.054 4-5.5-129.398-94.108-4 5.5zm-22.445 15.688 5.542-1.847L41.204-.895 35.662.952zm1.913-.732 7.82-2.2L52.652-4.21l-7.82 2.2zm3.875-1.198 6.68-1.517L63.278-6.73l-6.68 1.518zM161 71.282V47H1v24.282zM81-33H44v160h37zm23.569 174.069 2-2L-6.569 25.932l-2 2zm-11.259 8.693 1.709-1.1L8.398 14.138l-1.708 1.1zm-2.555 1.462 4.292-2.4L16.953 9.176l-4.292 2.4zm-2.892 1.157 4.958-2.153L29.096 3.466l-4.959 2.153z" mask="url(#b)"/><mask id="d" fill="#fff"><path d="M154 47h-33v29l7 3 6.5 3.5L143 89l7 7 4 6.5z"/></mask><path fill="url(#e)" d="M121 47v-80H41v80zm33 0h80v-80h-80zm0 55.5-68.133 41.928L234 385.144V102.5zm-4-6.5 68.133-41.928-4.923-7.999-6.641-6.642zm-7-7 56.569-56.568-3.755-3.755-4.218-3.226zm-8.5-6.5 48.596-63.549-5.06-3.869-5.608-3.02zM128 79l37.928-70.438-3.138-1.69-3.276-1.404zm-7-3H41v52.752l48.487 20.78zm0 51h33V-33h-33zM74 47v55.5h160V47zm148.133 13.572-4-6.5-136.266 83.856 4 6.5zm-15.564-21.14-7-7L86.432 145.569l7 7zm-14.973-13.98-8.5-6.5-97.192 127.097 8.5 6.5zm-19.168-13.39-6.5-3.5-75.856 140.876 6.5 3.5zm-12.914-6.594-7-3-63.027 147.064 7 3zM201 76.001V47l-160-.002v29z" mask="url(#d)"/><mask id="f" fill="#fff"><path d="M154 37H44v5h110z"/></mask><path fill="#fff" d="M44 37v-7h-7v7zm110 0h7v-7h-7zm0 5v7h7v-7zM44 42h-7v7h7zm0 2h110V30H44zm103-7v5h14v-5zm7-2H44v14h110zM51 42v-5H37v5z" mask="url(#f)"/><mask id="g" fill="#fff"><path d="M154 27H44v5h110z"/></mask><path fill="#fff" d="M44 27v-7h-7v7zm110 0h7v-7h-7zm0 5v7h7v-7zM44 32h-7v7h7zm0 2h110V20H44zm103-7v5h14v-5zm7-2H44v14h110zM51 32v-5H37v5z" mask="url(#g)"/><path fill="#fff" stroke="#000" stroke-width="5" d="M41.5 22H44v2.5h110V22h2.5c0-10.77-8.73-19.5-19.5-19.5H61c-10.77 0-19.5 8.73-19.5 19.5Z"/><mask id="h" fill="#fff"><path d="M43 270.483V223l.944 1.474.945 1.475.944 1.474.473.492 1.888 2.457 2.362 2.949 1.416 1.966 1.417 1.475 1.417 1.966.944.983.944.983 1.417 1.474L60 243.642l1.889 1.475.944.491.945.492 1.416.983.945.491 1.417.492.944.491 2.833.983 1.417.492 1.417.491 1.889.492H77V280.5l-3.778-2.453-1.416-.983L69.5 276l-1-.5-1-.5-1.5-.5-1-.5-1-.4-2.111-.66-.708-.245-.709-.246-.708-.246-.708-.246-.709-.245-.708-.246-.708-.246-.709-.246-1.889-.491-1.889-.492-1.888-.491h-3.778l-2.834.491z"/></mask><path fill="url(#i)" d="m43 223 67.365-43.15L-37-50.216V223zm0 47.483h-80v131.816l116.93-60.85zm.944-.492-13.673-78.822-12.238 2.123-11.02 5.734zm2.834-.491v-80H39.89l-6.786 1.177zm3.778 0L70.7 192.078l-9.908-2.578H50.556zm1.888.491 20.146-77.422zm1.89.492-20.146 77.422zm1.888.491 26.222-75.58-3.002-1.042-3.075-.8zm5.667 1.966-26.221 75.581 1.175.408 1.188.371zm2.111.66 29.711-74.278-2.886-1.155-2.967-.927zm2 .9-35.777 71.554 5.085 2.543 5.394 1.798zm1.5.5 35.777-71.554-5.085-2.543-5.394-1.798zm2 1-35.777 71.554 1.124.562 1.142.527zm2.306 1.064 45.606-65.728-5.746-3.986-6.35-2.93zm1.416.983-45.606 65.727 1.006.698 1.027.667zM77 251.015h80v-80H77zm-.944 0L55.91 328.437l9.907 2.578h10.238zm-1.89-.492-26.22 75.581 3 1.041 3.076.8zm-1.416-.491 26.221-75.581zm-1.417-.492-26.221 75.581zm-2.833-.983-36.93 70.966 5.185 2.699 5.524 1.916zm-.944-.491 36.93-70.966-5.186-2.699-5.523-1.916zm-1.417-.492-36.93 70.966 5.185 2.699 5.523 1.916zm-.945-.491L19.588 312.81l4.172 2.895 4.504 2.344zm-1.416-.983 45.606-65.728-4.172-2.894-4.504-2.344zm-.945-.492-36.93 70.966zm-.944-.491-49.226 63.062 5.785 4.516 6.51 3.388zM60 243.642l-49.226 63.062zm-1.889-1.474L.423 297.595l3.959 4.119 4.503 3.516zm-1.417-1.474 57.688-55.427zm-.944-.983-57.688 55.426zm-.944-.983-64.905 46.77 3.303 4.583 3.914 4.073zm-1.417-1.966 64.904-46.77-3.302-4.584-3.914-4.073zm-1.417-1.475-64.904 46.77 3.303 4.583 3.913 4.074zm-1.416-1.966 64.904-46.77-1.187-1.647-1.268-1.584zm-2.362-2.949-63.427 48.754.483.628.495.619zm-1.888-2.457 63.427-48.754-2.686-3.494-3.054-3.179zm-.473-.492-67.365 43.15 4.236 6.614 5.442 5.663zM77 280.5l-43.573 67.093L157 427.846V280.5zm-19.361-9.034-26.222 75.581zm.708.246 26.222-75.581zm.709.245-26.222 75.581zm.708.246 26.222-75.58v-.001zm.708.246-26.221 75.58v.001zm-3.541-1.229 26.221-75.58v-.001zM65 274l35.777-71.554-2.976-1.488-3.09-1.236zm-102-51v47.483h160V223zM79.93 341.449l.945-.492L7.014 199.026l-.945.491zm-22.313 7.365 2.834-.491-27.346-157.646-2.834.492zm-9.423.686h2.362v-160h-2.362zm-17.784-2.578 1.89.492 40.29-154.845-1.89-.491zm1.89.492 1.888.491 40.29-154.844-1.888-.492zm1.888.491 1.89.492 40.29-154.845-1.89-.491zm3.843 1.395 2.111.66 47.716-152.72-2.111-.659zm2.67 1.095 1.5.5 50.597-151.79-1.5-.5zm-4.712-1.752 2.306 1.064 67.021-145.287-2.305-1.063zm-9.79-5.852 1.417.983 91.212-131.455-1.416-.983zM157 280v-2.936H-3V280zm0-2.936v-22.609H-3v22.609zm0-22.609v-1.966H-3v1.966zm0-1.966v-.983H-3v.983zm0-.983v-.491H-3v.491zm-80-80.491h-.944v160H77zm19.2 2.578-1.888-.492-40.29 154.844 1.889.492zm4.188 1.35-1.417-.492L46.53 325.612l1.416.492zm-1.417-.492-1.416-.491-52.443 151.161 1.417.492zm-1.416-.491-2.834-.983L42.28 324.138l2.833.983zm7.875 3.631-.944-.491-73.86 141.932.944.491zm-11.653-5.106-1.417-.491-52.443 151.161 1.417.491zm9.292 4.124-.944-.492-73.861 141.932.945.491zm7.731 4.746-1.416-.983-91.212 131.455 1.416.983zm-10.092-6.221-.944-.491-73.861 141.931.944.492zm-.944-.491-.945-.492-73.86 141.932.944.491zm11.351 7.412-1.889-1.474-98.452 126.123 1.889 1.475zm-1.889-1.474-1.889-1.475L8.885 305.23l1.889 1.474zm6.573 6.16-1.417-1.474L-.993 296.12l1.416 1.475zm-1.417-1.474-.944-.983L-1.938 295.137l.945.983zm-.944-.983-.945-.983L-2.882 294.154l.944.983zm6.272 7.673-1.417-1.965-129.808 93.54 1.416 1.966zm-8.633-10.622-1.417-1.474L-5.716 290.714l1.417 1.474zm5.799 7.182-1.416-1.966-129.809 93.54 1.417 1.966zm-3.871-5.197-2.361-2.949-124.899 100.002 2.361 2.949zm-1.383-1.701-1.889-2.458-126.855 97.507 1.889 2.458zm-7.629-9.131-.472-.491L-11.854 282.85l.472.492zm9.206 11.786-.945-1.475-134.73 86.3.944 1.474zm-.945-1.475-.944-1.474-134.73 86.299.944 1.475zm-.944-1.474-.945-1.475-134.73 86.3.944 1.474zM29.65 345.139l3.777 2.454 87.146-134.186-3.778-2.453zM157 280.5v-.5H-3v.5zM31.723 346.554l1 .5 71.554-143.108-1-.5zm1 .5 1 .5 71.554-143.108-1-.5zm-1.305-.007.708.246 52.442-151.162-.708-.246zm.708.245.708.246 52.443-151.161-.709-.246zm.708.246.709.246 52.442-151.162-.708-.245zm.708.246.709.245 52.443-151.161-.708-.245zm.709.246.708.245 52.443-151.161-.709-.246zm.708.245.709.246L88.11 197.36l-.708-.246zm11.819 1.225h.708v-160h-.708zm.708 0h.708v-160h-.708zm-17.485-2.945.708.246 52.443-151.162-.709-.245zm.708.246.708.246 52.444-151.162-.709-.245zm3.58 1.077 1 .4L94.71 199.722l-1-.4zm-5.066-2.324 1 .5 71.554-143.108-1-.5z" mask="url(#h)"/><path fill="none" stroke="#fff" stroke-width=".5" d="m44.658 278.133.023.093c.2.8.773 1.455 1.539 1.762l28.456 11.382c1.24.496 2.543-.554 2.324-1.87l-.491-1.964a8.35 8.35 0 0 0-3.219-4.747L71.5 281.5a40.7 40.7 0 0 0-7.324-3.275L63.5 278l-3.5-1-3.5-1-2.5-.5-2-.5-1.003-.201a7.7 7.7 0 0 0-2.994 0l-.467.094a4 4 0 0 0-1.025.351l-.68.341a2.24 2.24 0 0 0-1.173 2.548Z"/><path fill="none" stroke="#fff" stroke-linecap="round" stroke-width=".1" d="M71.34 281.441c.06.031.121.065.185.089.023.009.03.001.032-.023.003-.03-.015-.045-.033-.066-.002-.002-.032-.032-.024-.038.013-.01.068.02.082.025l.032.013c.01.003-.017-.011-.025-.018-.01-.008-.067-.066-.023-.057.028.006.112.028.083.025-.024-.004-.017-.036-.036-.044-.015-.007-.016-.01-.011-.027"/><path fill="#fff" d="M114 287.3c0 3.59-6.716 6.5-15 6.5s-15-2.91-15-6.5 6.716-6.5 15-6.5 15 2.91 15 6.5"/><path fill="#fff" d="M104.935 300.268c-5.487-.304-9.703-4.74-9.417-9.91.286-5.168 4.966-9.112 10.453-8.808s9.703 4.74 9.417 9.91c-.286 5.168-4.966 9.112-10.453 8.808"/><path fill="#fff" d="M93.957 297.626c-3.842 1.864-8.505.184-10.414-3.751s-.342-8.637 3.5-10.5c3.842-1.865 8.505-.185 10.414 3.75s.342 8.637-3.5 10.5M148.5 282.729c-5.345 3.841-5 12.271-11.207 8.231-16.293.04-11.759 1.098-12.293-8.231 0-4.546 5.503-8.231 12.293-8.231C150.655 272.303 154 278 148.5 282.729"/><path fill="#fff" d="M126.179 282.552c-1.154 1.884-2.471 3.177-2.942 2.888-.471-.288-.737-1.44 1.237-3.933 1.154-1.883 3.055-3.795 3.526-3.507.471.289-.666 2.668-1.821 4.552"/><path fill="#fff" d="M124.394 285.434c-1.485 2.423-2.423 5.855-2.894 5.566s-.296-4.188 1.189-6.611 3.071-4.155 3.542-3.867-.352 2.488-1.837 4.912"/><mask id="j" fill="#fff"><path d="M82 280.678V252.25l2 .25 4.5.5 7.5.5h5l6.5-.5 5-.5 3.5-.5v28.8l-1-.8-1.6-1-2.4-1-1.5-.5-1.5-.5-3-.5-4.026-.4H98l-4 .15-2 .25-2.5.5-4.5 1.5-1.5 1z"/></mask><path fill="url(#k)" d="m82 252.25 12.403-99.228L-18 138.972V252.25zm0 28.428H-18v205.709l161.771-127.068zm1.5-1.178-55.47-83.205-3.24 2.159-3.06 2.405zm1.5-1-31.623-94.868-12.704 4.235-11.143 7.428zm4.5-1.5-19.612-98.058-6.105 1.221-5.906 1.969zm2.5-.5-12.403-99.228-3.626.453-3.583.717zm2-.25-3.747-99.93-4.344.163-4.312.539zm4-.15v-100h-1.874l-1.873.07zm2.974 0 9.888-99.51-4.931-.49h-4.957zm4.026.4 16.44-98.639-3.262-.544-3.29-.327zm3 .5 31.623-94.868-7.444-2.481-7.739-1.29zm3 1 38.462-92.308-3.373-1.405-3.466-1.155zm2.4 1 53-84.8-6.961-4.35-7.577-3.158zm1.6 1 62.469-78.087-4.539-3.632L168 195.2zm1 .8-62.47 78.087L216 488.862V280.8zm0-28.8h100V136.699l-114.142 16.306zm-3.5.5 9.95 99.504 2.102-.21 2.09-.299zm-5 .5 7.67 99.705 1.141-.087 1.139-.114zm-6.5.5v100h3.84l3.83-.295zm-5 0-6.652 99.779 3.322.221H96zm-7.5-.5-11.043 99.388 2.191.244 2.2.147zm-4.5-.5-12.403 99.228.68.085.68.075zm-102-.25v28.428h200V252.25zm161.771 107.069 1.5-1.178L21.729 200.859l-1.5 1.179zm-4.801 3.386 1.5-1-110.94-166.41-1.5 1zm-22.347 10.663 4.5-1.5-63.246-189.736-4.5 1.5zm-7.511 1.69 2.5-.5-39.224-196.116-2.5.5zm-4.709.67 2-.25-24.806-198.456-2 .25zm-6.656.452 4-.15-7.494-199.86-4 .15zm.253-.08h2.974v-200H98zm-6.913-.49 4.025.4 19.776-199.02-4.026-.4zm-2.527-.471 3 .5 32.88-197.278-3-.5zm-12.183-3.271 1.5.5 63.246-189.736-1.5-.5zm1.5.5 1.5.5 63.246-189.736-1.5-.5zm-5.338-2.06 2.4 1 76.923-184.616-2.4-1zM60.4 363.8l1.6 1 106-169.6-1.6-1zm-7.87-5.713 1 .8 124.94-156.174-1-.8zM216 280.8V277H16v3.8zm0-3.8v-9.5H16v9.5zm0-9.5v-10H16v10zm0-10V252H16v5.5zM101.858 153.005l-3.5.5 28.284 197.99 3.5-.5zm.692-.009-5 .5 19.9 199.008 5-.5zm-2.72.299-6.5.5 15.34 199.41 6.5-.5zm1.17.205h-5v200h5zm1.652.221-7.5-.5-13.304 199.558 7.5.5zm-3.109-.109-4.5-.5-22.086 198.776 4.5.5zm-3.14-.34-2-.25-24.806 198.456 2 .25z" mask="url(#j)"/><mask id="l" fill="#fff"><path d="M121 278v-27l3.5-1 4.5-1.5 5-2 6-3 5-3 3.5-2.5 2.5-2.5 2-2v39l-2.5-1.5-4-1-4.5-.5h-3.5l-4.5.5-4.5 1-4.5 2.5z"/></mask><path fill="url(#m)" d="m121 251-27.472-96.152L21 175.57V251zm0 27H21v263.02l174.741-196.584zm4-4.5-48.564-87.416-14.873 8.263-11.304 12.717zm4.5-2.5-21.693-97.619-14.177 3.151-12.694 7.052zm4.5-1-11.043-99.388-5.373.597-5.277 1.172zm4.5-.5v-100h-5.539l-5.504.612zm3.5 0 11.043-99.388-5.504-.612H142zm4.5.5 24.254-97.014-6.526-1.632-6.685-.742zm4 1 51.45-85.749-12.76-7.656-14.436-3.609zm2.5 1.5-51.45 85.749L253 449.119V272.5zm0-39h100V-7.921L82.29 162.789zm-4.5 4.5 58.124 81.373 6.734-4.81 5.853-5.852zm-3.5 2.5 51.45 85.749 3.424-2.054 3.25-2.322zm-5 3 44.721 89.443 3.435-1.718 3.294-1.976zm-6 3 37.139 92.848 3.862-1.545 3.72-1.86zm-5 2 31.623 94.868 2.788-.929 2.728-1.091zm-4.5 1.5 27.472 96.152 2.089-.597 2.062-.687zM21 251v27h200v-27zm174.741 93.436 4-4.5L50.259 207.064l-4 4.5zm-22.177 16.48 4.5-2.5-97.128-174.832-4.5 2.5zm-22.371 7.703 4.5-1-43.386-195.238-4.5 1zm-6.15.769 4.5-.5-22.086-198.776-4.5.5zm-6.543.112h3.5v-200h-3.5zm-7.543-.612 4.5.5 22.086-198.776-4.5-.5zm-8.711-1.874 4 1 48.508-194.028-4-1zM99.05 356.749l2.5 1.5 102.9-171.498-2.5-1.5zM253 272.5v-6H53v6zm0-6V253H53v13.5zm0-13.5v-19.5H53V253zM82.29 162.789l-2 2 141.42 141.422 2-2zm-2 2-2.5 2.5 141.42 141.422 2.5-2.5zm10.086-8.162-3.5 2.5 116.248 162.746 3.5-2.5zm3.174-1.876-5 3 102.9 171.498 5-3zm1.729-.694-6 3 89.442 178.886 6-3zm1.582-.405-5 2 74.278 185.696 5-2zm.516-.02-4.5 1.5 63.246 189.736 4.5-1.5zm-.35.216-3.5 1 54.945 192.304 3.5-1z" mask="url(#l)"/><path d="M43.027 93h3.88s-5.753 15.793-.17 24.431c.109.169.17.365.177.567.17 4.643 4.006 9.198-3.85 1.831a3 3 0 0 1-.576-.742c-5.1-9.431-4.34-16.578.539-26.087"/><path fill="none" stroke="#000" d="M44 96.5 50 85l10.5-6L80 74h11.5l14.5 1 7 2 10 4 12.5 7 2 2 1 1"/><defs fill="none"><linearGradient id="a" x1="193.793" x2="3" y1="160.613" y2="160.613" gradientUnits="userSpaceOnUse"><stop stop-color="#006C75"/><stop offset="1" stop-color="#0DA89A"/></linearGradient><linearGradient id="c" x1="81" x2="44" y1="68.5" y2="68.5" gradientUnits="userSpaceOnUse"><stop stop-color="#006C75"/><stop offset="1" stop-color="#0DA89A"/></linearGradient><linearGradient id="e" x1="154" x2="120" y1="74.75" y2="74.75" gradientUnits="userSpaceOnUse"><stop stop-color="#006C75"/><stop offset="1" stop-color="#0DA89A"/></linearGradient><linearGradient id="i" x1="77" x2="43" y1="252.243" y2="252.243" gradientUnits="userSpaceOnUse"><stop stop-color="#006C75"/><stop offset="1" stop-color="#0DA89A"/></linearGradient><linearGradient id="k" x1="116" x2="82" y1="266.4" y2="266.4" gradientUnits="userSpaceOnUse"><stop stop-color="#006C75"/><stop offset="1" stop-color="#0CA699"/></linearGradient><linearGradient id="m" x1="153" x2="121" y1="255.75" y2="255.75" gradientUnits="userSpaceOnUse"><stop stop-color="#006C75"/><stop offset="1" stop-color="#0CA699"/></linearGradient></defs></svg>