<?xml version="1.0" standalone="no"?>
<!DOCTYPE svg PUBLIC "-//W3C//DTD SVG 20010904//EN"
 "http://www.w3.org/TR/2001/REC-SVG-20010904/DTD/svg10.dtd">
<svg version="1.0" xmlns="http://www.w3.org/2000/svg"
 width="505.000000pt" height="505.000000pt" viewBox="0 0 505.000000 505.000000"
 preserveAspectRatio="xMidYMid meet">
<metadata>
Created by potrace 1.14, written by Peter Selinger 2001-2017
</metadata>
<g transform="translate(0.000000,505.000000) scale(0.100000,-0.100000)"
fill="#000000" stroke="none">
<path d="M2523 4374 c0 -30 -4 -59 -9 -64 -5 -5 -40 -12 -79 -15 -122 -12
-198 -21 -330 -41 -176 -26 -259 -57 -390 -142 -62 -40 -205 -176 -205 -194 0
-4 -6 -13 -13 -20 -13 -13 -116 -183 -117 -193 0 -3 -9 -24 -19 -48 -10 -24
-31 -88 -46 -143 -23 -83 -71 -180 -105 -214 -16 -16 -110 -202 -110 -218 0
-4 -14 -21 -31 -38 -32 -30 -69 -93 -69 -117 0 -7 -8 -22 -19 -33 -32 -35 -50
-141 -46 -287 4 -205 7 -218 68 -333 35 -66 90 -133 110 -134 22 0 48 -15 119
-67 31 -24 61 -43 67 -43 6 0 11 -5 11 -10 0 -6 3 -10 8 -9 18 3 52 -15 56
-30 5 -16 22 -106 32 -166 11 -61 26 -117 42 -158 13 -31 83 -137 107 -160 8
-9 15 -19 15 -24 0 -4 15 -24 33 -44 17 -20 52 -61 77 -90 154 -182 339 -379
356 -379 6 0 14 -8 16 -18 3 -11 22 -22 54 -30 27 -7 60 -16 74 -20 38 -11
640 -12 696 -1 210 41 304 93 485 272 62 61 149 167 149 182 0 3 11 22 25 43
22 34 31 59 65 184 9 33 16 39 53 48 87 22 87 21 103 135 1 11 10 58 19 104 9
46 18 97 20 115 3 17 6 40 9 51 2 11 9 54 16 95 6 41 14 86 16 100 2 14 6 40
9 58 3 17 8 49 11 70 3 20 7 53 10 72 2 19 7 51 10 70 3 19 7 55 10 80 3 25 7
61 10 80 18 149 25 422 11 478 -16 64 -33 92 -64 109 -18 9 -33 21 -33 25 0 5
-6 8 -12 8 -19 1 -54 33 -56 50 -1 15 -5 39 -16 100 -14 75 -47 167 -74 211
-16 25 -47 79 -68 120 -21 40 -42 76 -45 79 -4 3 -9 15 -13 28 -4 12 -12 22
-17 22 -5 0 -9 5 -9 11 0 38 -173 222 -295 314 -58 45 -226 142 -253 146 -4 1
-18 6 -32 11 -83 32 -212 57 -326 63 l-70 3 -1 -54z"/>
</g>
</svg>
