<?xml version="1.0" standalone="no"?>
<!DOCTYPE svg PUBLIC "-//W3C//DTD SVG 20010904//EN"
 "http://www.w3.org/TR/2001/REC-SVG-20010904/DTD/svg10.dtd">
<svg version="1.0" xmlns="http://www.w3.org/2000/svg"
 width="512.000000pt" height="512.000000pt" viewBox="0 0 512.000000 512.000000"
 preserveAspectRatio="xMidYMid meet">
<metadata>
Created by potrace 1.14, written by Peter Selinger 2001-2017
</metadata>
<g transform="translate(0.000000,512.000000) scale(0.100000,-0.100000)"
fill="#000000" stroke="none">
<path d="M2426 4843 c-3 -3 -42 -7 -87 -9 -46 -2 -99 -6 -119 -10 -19 -3 -46
-7 -60 -9 -67 -8 -197 -41 -303 -76 -270 -90 -477 -217 -683 -423 -199 -198
-337 -405 -472 -706 -46 -103 -128 -347 -147 -438 -2 -9 -10 -45 -18 -80 -18
-74 -17 -68 -17 -86 0 -9 -20 -19 -53 -26 -64 -16 -84 -26 -111 -57 -12 -13
-29 -25 -39 -27 -25 -3 -137 -123 -155 -166 -20 -48 -41 -126 -48 -180 -3 -25
-16 -59 -30 -78 -91 -118 -102 -298 -29 -442 13 -25 32 -54 43 -65 10 -12 26
-53 35 -93 28 -123 59 -168 172 -252 33 -25 62 -48 65 -51 27 -32 137 -52 306
-53 85 -1 157 -5 161 -9 4 -4 8 -14 10 -22 5 -25 9 -39 17 -63 5 -15 3 -29 -6
-39 -11 -15 -11 -16 4 -10 10 3 18 3 19 -1 0 -4 3 -18 6 -32 2 -14 6 -30 7
-37 1 -7 5 -15 9 -19 4 -4 4 -19 1 -33 -4 -21 -3 -23 6 -11 10 13 11 13 9 0
-1 -8 1 -23 6 -34 4 -10 4 -21 -1 -25 -13 -9 -16 -31 -5 -31 5 0 11 3 14 8 2
4 2 2 1 -5 -2 -6 3 -17 11 -23 8 -6 12 -17 9 -25 -3 -7 4 -20 16 -28 l21 -15
-20 -14 c-12 -8 -18 -18 -14 -21 3 -4 15 0 25 10 10 9 21 13 25 10 3 -4 0 -7
-8 -7 -12 0 -11 -2 1 -11 12 -9 12 -10 -3 -5 -12 4 -17 2 -14 -6 2 -7 11 -12
20 -10 8 1 18 -2 22 -8 3 -5 0 -7 -8 -4 -15 5 -17 -22 -3 -44 6 -11 13 -9 29
5 l22 18 -20 -25 c-11 -14 -28 -32 -38 -41 -18 -15 -18 -16 -1 -30 16 -12 17
-12 13 1 -3 8 5 25 18 37 27 26 31 19 6 -9 -16 -17 -16 -20 0 -36 17 -16 17
-16 15 7 -2 16 3 24 15 26 9 2 15 -1 11 -6 -3 -5 -10 -6 -16 -3 -6 4 -8 -1 -4
-13 4 -12 1 -25 -9 -33 -21 -17 -19 -26 5 -26 13 0 19 5 16 13 -3 7 -1 13 4
13 14 0 12 -24 -2 -38 -6 -6 -8 -15 -4 -19 4 -4 12 -1 17 7 8 11 12 12 15 3 3
-7 11 -11 17 -9 7 1 9 1 5 -1 -3 -2 1 -17 10 -32 19 -34 86 -77 110 -73 14 3
14 1 -3 -13 l-20 -17 20 7 c35 12 40 10 40 -10 0 -25 12 -45 28 -45 8 0 8 3
-1 12 -15 15 -15 28 0 28 6 0 8 -3 5 -7 -15 -15 15 -32 39 -22 17 6 23 6 19
-1 -3 -6 -14 -10 -23 -10 -12 0 -13 -3 -4 -12 9 -9 16 -8 30 5 10 9 23 17 28
17 5 0 3 -4 -5 -9 -7 -5 -10 -14 -7 -20 4 -6 12 -8 18 -5 7 4 8 2 4 -4 -4 -7
-2 -12 4 -12 7 0 10 -5 8 -11 -2 -6 -7 -10 -11 -10 -4 1 -6 3 -4 4 4 7 -25 37
-36 37 -7 0 -7 -4 1 -12 7 -7 12 -17 12 -23 0 -5 -5 -3 -10 5 -7 11 -10 11
-10 2 0 -7 -5 -10 -11 -6 -8 4 -7 9 2 16 11 6 9 8 -6 6 -11 -2 -19 2 -18 9 2
7 -6 10 -17 8 -11 -2 -20 2 -20 8 0 8 -3 8 -8 2 -11 -16 -30 -16 -36 1 -5 12
-1 14 16 8 20 -6 21 -5 10 8 -7 9 -10 23 -6 32 5 12 2 15 -9 10 -9 -3 -14 -13
-10 -22 4 -13 3 -14 -5 -3 -8 11 -10 11 -15 0 -4 -9 -6 -7 -7 6 -1 11 -2 23
-1 28 1 9 -11 9 -27 -1 -8 -5 -10 -16 -5 -28 6 -17 5 -17 -10 -5 -9 7 -15 17
-12 21 3 4 -2 13 -10 20 -12 10 -13 16 -4 26 16 20 -1 17 -24 -4 -12 -10 -17
-11 -12 -3 6 10 4 12 -5 6 -9 -6 -11 -4 -4 6 5 10 0 8 -19 -4 -15 -9 -27 -13
-27 -8 0 5 6 13 13 18 20 12 47 14 47 2 0 -5 4 -8 10 -4 17 11 -1 33 -25 30
-14 -1 -22 1 -19 6 2 4 -5 6 -17 4 -12 -2 -19 -1 -15 2 4 4 -4 13 -16 20 -19
10 -20 12 -5 13 10 0 15 5 12 10 -4 6 -10 8 -15 5 -5 -3 -11 -1 -15 5 -4 6
-11 7 -17 4 -7 -5 -8 -2 -3 6 5 9 4 11 -4 6 -6 -4 -8 -12 -5 -18 4 -7 2 -8 -5
-4 -6 4 -8 12 -5 18 4 6 -2 8 -17 4 -13 -3 -18 -3 -11 0 6 3 9 11 6 16 -4 6
-3 8 3 5 5 -3 10 0 10 8 0 8 -5 11 -10 8 -6 -3 -7 -1 -3 6 5 7 2 10 -6 9 -8
-2 -12 4 -10 15 2 10 -3 16 -10 15 -7 -2 -13 4 -13 12 0 8 -6 20 -14 26 -8 6
-11 17 -7 25 4 8 1 6 -7 -3 -8 -10 -20 -18 -27 -18 -9 0 -7 7 5 20 10 12 25
18 32 16 11 -4 11 -1 2 15 -10 19 -9 20 13 9 22 -11 22 -11 3 5 -11 9 -19 21
-17 27 2 7 -3 6 -12 -2 -10 -7 -16 -8 -16 -2 0 6 5 14 10 17 6 4 7 11 4 17 -4
7 -2 8 4 4 7 -4 10 1 7 14 -3 13 0 18 7 14 7 -5 8 -2 3 6 -4 7 -2 16 6 22 11
8 10 9 -3 4 -10 -3 -20 0 -24 6 -4 6 -3 8 3 5 5 -3 10 0 10 8 0 8 -3 15 -7 15
-3 0 -6 9 -7 21 -2 18 0 19 15 7 12 -9 11 -6 -3 12 -11 14 -20 26 -21 27 0 2
-9 -4 -20 -13 -18 -14 -18 -15 5 -8 l24 6 -21 -27 c-12 -15 -19 -32 -16 -37 4
-6 -2 -8 -11 -6 -10 1 -20 9 -23 16 -2 7 2 11 10 10 7 -2 13 3 13 11 0 8 -6
15 -13 17 -7 1 -8 0 -2 -3 5 -2 10 -9 10 -14 0 -6 -4 -8 -9 -4 -5 3 -13 0 -17
-6 -4 -8 5 -22 22 -36 25 -22 26 -24 7 -18 -13 3 -23 2 -23 -3 0 -5 10 -9 22
-9 42 -1 51 -3 44 -10 -4 -4 -22 -9 -39 -11 -52 -4 -54 -5 -54 -18 0 -9 6 -9
23 2 15 10 24 12 29 5 3 -6 0 -11 -8 -11 -8 0 -21 -8 -28 -17 -8 -10 -9 -14
-2 -10 6 4 15 2 18 -4 4 -5 13 -8 20 -5 7 2 21 -1 31 -9 17 -12 16 -13 -11
-11 -17 1 -36 5 -43 9 -6 5 -12 4 -12 -2 0 -5 5 -11 11 -13 6 -2 12 -17 12
-33 0 -17 2 -24 4 -17 5 13 24 17 22 5 -4 -26 2 -33 20 -24 10 6 21 7 25 4 10
-10 7 -33 -5 -33 -5 0 -7 6 -3 12 5 8 -2 7 -16 -3 -13 -9 -26 -22 -28 -30 -3
-12 -2 -12 6 0 8 11 15 9 37 -13 15 -15 25 -30 21 -33 -3 -3 -15 5 -26 18
l-21 24 17 -27 c18 -30 47 -38 42 -12 -2 10 2 19 8 21 15 5 14 -29 -2 -47 -9
-11 -10 -20 -3 -30 9 -13 10 -12 5 2 -3 10 -1 20 4 23 10 6 14 -7 11 -35 -2
-12 0 -12 7 -2 8 11 10 11 15 -2 3 -8 1 -17 -6 -19 -7 -3 -2 -4 10 -4 12 1 19
5 17 9 -3 4 0 8 5 8 6 0 11 -7 11 -16 0 -10 6 -14 15 -10 8 3 15 1 15 -4 0 -6
-4 -10 -10 -10 -5 0 -10 -8 -10 -17 0 -14 5 -11 18 10 10 15 22 24 25 21 4 -4
2 -13 -4 -21 -15 -18 6 -44 29 -36 9 3 14 3 10 -2 -13 -13 25 -35 39 -23 9 7
13 7 13 0 0 -5 -10 -17 -23 -26 l-22 -17 23 11 c20 10 26 7 23 -12 0 -5 4 -8
9 -8 14 0 13 13 -2 28 -8 8 -8 12 -1 12 22 0 35 -28 23 -50 -6 -12 -9 -24 -7
-27 3 -2 8 5 12 16 6 19 8 20 27 7 11 -8 27 -12 36 -9 11 5 13 3 7 -8 -8 -12
-6 -12 8 0 10 8 17 9 17 3 0 -6 -5 -14 -10 -17 -5 -3 -10 -12 -10 -18 0 -7 5
-4 11 6 8 14 14 16 24 7 8 -7 19 -9 24 -6 5 4 14 -1 19 -11 9 -15 12 -15 27
-3 14 12 16 12 15 -1 -1 -7 -2 -21 -1 -29 1 -13 3 -13 10 -1 5 8 7 20 4 28 -3
8 11 4 38 -11 24 -14 46 -23 51 -20 4 3 8 0 8 -5 0 -6 -4 -11 -10 -11 -18 0
-10 -19 13 -30 19 -10 20 -9 5 3 -15 12 -15 15 8 43 17 19 27 25 30 16 3 -6
10 -10 15 -7 5 4 6 -1 2 -10 -3 -9 -9 -13 -12 -8 -12 16 -27 11 -28 -10 0 -12
1 -16 4 -9 8 20 22 14 18 -9 -3 -15 0 -19 10 -15 51 21 51 21 30 -5 l-20 -24
28 24 c15 14 27 19 27 13 0 -6 -5 -14 -10 -17 -13 -8 -3 -25 13 -25 9 0 9 2 0
8 -8 5 -8 12 2 25 14 20 24 12 20 -16 -2 -9 1 -15 6 -11 5 3 7 10 4 15 -4 5 1
12 9 15 9 3 13 11 9 17 -3 6 -1 7 5 3 7 -4 12 -1 12 8 0 8 4 17 9 20 5 4 7 -3
4 -14 -3 -11 0 -20 6 -20 6 0 11 -5 11 -11 0 -8 -4 -8 -14 0 -19 16 -45 -14
-27 -32 10 -9 11 -8 6 5 -5 13 -2 18 9 18 10 0 13 -5 9 -16 -5 -14 -3 -14 15
1 16 14 18 23 12 41 -6 14 -5 26 1 29 5 4 9 3 8 -2 -4 -26 2 -44 14 -37 7 5 6
0 -3 -11 -12 -15 -12 -19 -2 -23 10 -3 9 -9 -5 -25 -17 -20 -17 -20 11 1 15
12 33 19 38 16 6 -4 5 -10 -3 -16 -10 -6 -6 -7 11 -2 23 6 24 6 10 -12 -14
-17 -13 -18 1 -7 9 7 20 9 25 5 4 -4 2 1 -5 11 -13 17 -6 23 22 18 11 -2 8 14
-5 27 -7 7 -8 12 -4 12 5 0 2 8 -5 17 -13 16 -12 17 3 5 10 -8 17 -17 16 -20
-2 -14 14 -42 22 -37 10 6 35 -23 26 -32 -3 -3 -6 -1 -6 5 0 6 -9 9 -20 7 -11
-2 -18 0 -16 4 3 4 -1 8 -8 8 -20 0 -8 -25 12 -26 9 -1 34 -2 54 -2 23 -1 35
-5 31 -12 -7 -11 12 -2 37 18 18 15 50 16 47 2 -1 -5 4 -12 12 -15 9 -3 11 0
6 7 -5 9 -2 9 13 0 12 -7 18 -17 16 -21 -3 -5 -2 -8 3 -7 4 1 10 0 13 -1 25
-9 41 -7 36 6 -3 9 -1 12 4 9 12 -7 13 7 3 21 -5 5 -1 1 9 -8 18 -19 33 -24
23 -8 -13 22 21 4 39 -20 10 -14 16 -18 13 -9 -3 9 -1 22 5 30 8 11 9 10 4 -3
-7 -23 10 -23 23 0 6 9 11 13 11 8 0 -5 -7 -17 -16 -27 -12 -13 -12 -19 -3
-25 7 -4 10 -3 7 2 -3 5 4 18 15 28 17 16 19 17 14 3 -6 -17 1 -21 35 -18 9 1
19 -3 23 -9 3 -6 11 -8 16 -4 5 3 7 10 3 15 -3 5 -10 7 -15 4 -5 -4 -9 -2 -9
4 0 12 38 8 67 -7 25 -14 36 -15 29 -4 -3 5 1 9 9 9 8 0 12 -4 9 -8 -8 -14 20
-16 45 -3 20 11 28 10 50 -4 l26 -16 -20 24 c-11 14 -13 19 -5 12 21 -18 34
-15 19 6 -13 15 -12 16 3 3 10 -7 16 -17 13 -20 -4 -8 1 -10 55 -14 19 -1 42
-6 50 -11 12 -7 13 -6 3 5 -7 7 -13 20 -13 29 0 13 2 13 9 1 5 -8 15 -16 23
-17 7 -2 23 -5 35 -8 13 -3 25 -1 28 5 4 5 11 9 16 9 6 0 8 -4 5 -8 -3 -5 2
-9 10 -9 10 0 8 7 -8 25 l-23 25 29 -19 c35 -22 106 -27 99 -6 -4 9 -9 10 -18
2 -9 -8 -14 -6 -18 4 -4 9 -1 18 5 22 7 5 8 2 3 -6 -6 -10 -4 -12 8 -7 9 3 23
0 31 -8 17 -17 32 -19 41 -5 4 6 -1 7 -11 3 -11 -4 -9 2 7 18 25 26 41 30 21
6 -17 -20 -2 -29 16 -10 14 14 17 14 29 -3 7 -10 13 -12 13 -6 0 18 28 14 39
-6 6 -10 11 -12 11 -4 0 7 4 11 9 8 5 -3 11 1 15 9 3 8 -3 19 -12 24 -15 9
-14 10 5 8 12 0 19 -5 17 -9 -3 -4 1 -8 9 -8 8 0 19 10 26 23 6 12 10 15 7 6
-2 -9 1 -22 7 -28 9 -9 7 -11 -8 -6 -19 6 -19 6 -3 -8 10 -8 14 -18 10 -22 -4
-4 3 -2 16 4 26 14 29 23 5 14 -16 -6 -15 -3 2 18 15 18 16 20 3 10 -12 -9
-18 -10 -18 -2 0 10 11 14 27 9 5 -2 7 -6 6 -9 -1 -4 10 -17 25 -30 21 -19 23
-20 9 -3 -15 18 -15 23 -4 33 11 9 17 8 27 -4 8 -9 17 -12 24 -6 6 4 21 7 33
5 23 -4 39 21 21 32 -7 5 -8 2 -3 -6 6 -9 4 -11 -5 -5 -9 6 -11 4 -5 -6 7 -11
6 -12 -6 -3 -8 6 -22 10 -31 9 -10 -2 -18 1 -18 6 0 5 5 10 10 10 11 2 25 5
38 9 4 1 10 2 15 1 4 0 7 4 7 9 0 6 5 10 11 10 8 0 8 -5 -1 -15 -12 -15 -4
-20 23 -16 4 0 7 -3 7 -7 0 -5 6 -9 14 -9 8 0 12 6 9 13 -3 9 3 12 20 8 35 -6
45 15 17 38 -12 10 -17 18 -12 18 6 0 14 -4 17 -10 3 -5 11 -10 16 -10 6 0 7
5 4 10 -3 6 -1 10 5 10 7 0 9 -8 5 -20 -5 -15 -3 -18 9 -14 12 5 15 2 10 -12
-6 -17 -5 -17 9 1 12 14 16 16 17 6 0 -11 3 -10 13 3 11 15 17 16 34 7 17 -9
21 -8 19 4 -1 8 -6 18 -11 22 -4 4 -5 2 -1 -4 4 -7 2 -13 -3 -13 -6 0 -11 4
-11 8 0 4 -12 9 -26 10 -22 2 -24 -1 -15 -12 10 -12 9 -14 -6 -12 -24 4 -21
18 6 32 11 6 18 15 13 20 -4 5 4 0 17 -11 l24 -20 -7 25 c-3 14 -3 19 0 12 3
-6 10 -10 15 -7 5 4 6 -1 3 -9 -4 -11 0 -16 10 -16 9 0 29 -8 43 -17 15 -10
24 -13 21 -7 -8 13 42 69 51 57 8 -12 49 -14 56 -2 3 5 0 6 -8 3 -8 -3 -14 2
-15 11 -1 8 -3 22 -4 30 -2 19 -12 19 -28 0 -10 -12 -9 -15 5 -15 24 0 10 -13
-18 -17 -15 -2 -18 0 -9 6 8 4 13 11 13 15 -3 19 2 25 27 34 24 8 28 7 28 -9
0 -9 -5 -15 -11 -11 -5 3 -4 -2 3 -11 9 -10 24 -15 43 -12 16 2 29 -1 29 -6 0
-5 5 -9 11 -9 8 0 7 5 -2 16 -11 13 -11 15 2 14 7 -1 21 -2 29 -1 12 1 11 4
-3 12 -14 8 -16 14 -6 25 6 8 16 14 21 14 6 0 5 -7 -2 -15 -10 -12 -10 -15 1
-17 8 0 21 -2 29 -3 8 -1 20 3 27 8 7 5 18 5 25 1 10 -5 10 -4 1 6 -10 11 -15
11 -28 0 -9 -8 -15 -8 -15 -2 0 6 5 14 10 17 6 4 8 11 5 16 -4 5 -1 9 4 9 6 0
11 -6 11 -12 0 -9 3 -8 9 2 6 8 8 17 6 20 -2 3 5 11 16 18 21 14 25 3 7 -18
-11 -12 -10 -12 5 -1 14 11 20 11 35 0 14 -11 15 -11 5 0 -13 15 -6 44 8 35 5
-3 7 -9 5 -13 -3 -4 1 -8 9 -8 13 0 12 3 -1 18 -9 10 -21 16 -27 12 -6 -3 -22
-7 -36 -9 -14 -1 -30 -2 -34 -3 -5 -1 -6 -5 -2 -10 3 -5 0 -13 -6 -17 -8 -5
-10 -2 -5 7 4 8 1 6 -7 -4 -9 -10 -18 -14 -21 -8 -3 5 -1 12 4 14 6 3 5 4 -2
3 -7 -2 -12 -8 -11 -14 4 -18 -25 -21 -39 -4 -12 16 -11 16 6 2 17 -14 18 -13
13 5 -4 11 -2 27 4 35 8 12 9 10 4 -8 -7 -23 -6 -23 17 -8 14 9 28 13 33 9 4
-5 5 0 2 9 -4 12 -1 16 11 13 10 -2 26 3 36 11 17 12 16 13 -17 9 -40 -5 -51
3 -35 25 8 12 9 12 4 -2 -4 -14 0 -16 27 -12 18 3 38 6 45 6 13 1 16 11 5 21
-3 4 -12 2 -18 -3 -14 -12 -45 -3 -45 13 0 6 3 7 7 4 9 -10 34 14 26 26 -4 6
-1 7 6 3 9 -6 8 -13 -5 -27 -19 -21 -6 -27 14 -7 10 10 15 10 22 -2 5 -8 10
-13 11 -10 0 3 2 13 4 24 2 10 14 29 26 42 18 19 20 26 9 39 -8 10 -9 15 -1
15 6 0 11 -5 11 -11 0 -5 5 -7 10 -4 10 6 14 -8 10 -34 -1 -12 1 -13 14 -2 11
9 13 18 6 30 -5 9 -5 23 0 31 4 7 6 20 3 29 -4 11 0 9 10 -4 9 -11 17 -15 17
-8 0 7 -10 21 -21 32 -20 19 -21 22 -6 43 8 13 25 33 36 45 18 19 20 27 10 44
-8 17 -8 20 1 14 9 -5 10 -1 6 16 -3 13 -3 18 0 11 3 -6 10 -10 15 -6 5 3 5
13 -1 24 -9 17 -8 19 7 13 16 -6 16 -5 4 11 -9 10 -11 20 -5 24 11 9 17 30 16
60 -1 12 3 22 9 22 6 0 8 7 5 15 -3 9 -1 23 4 33 8 15 28 82 30 104 1 4 9 31
19 60 l18 52 144 2 c217 2 269 14 355 80 139 107 173 153 200 271 9 40 28 86
45 110 61 86 79 146 80 261 0 86 -20 153 -65 220 -24 34 -37 71 -50 137 -9 49
-26 109 -36 132 -21 47 -140 173 -164 173 -9 0 -22 11 -31 23 -19 29 -43 41
-118 57 -59 14 -62 16 -71 82 -30 203 -183 609 -308 817 -21 34 -38 65 -38 67
0 5 -119 172 -145 203 -146 176 -310 323 -470 421 -94 58 -254 133 -340 160
-38 12 -79 26 -90 30 -20 8 -58 18 -105 26 -14 3 -41 9 -60 14 -20 5 -56 12
-80 15 -25 3 -57 8 -72 11 -15 3 -63 7 -105 9 -43 2 -78 5 -78 6 0 4 -254 7
-259 2z m-1539 -3673 c1 -11 -4 -20 -10 -20 -7 0 -4 -5 6 -11 9 -5 17 -15 17
-22 0 -8 -3 -8 -9 1 -4 8 -12 13 -17 13 -8 -1 -10 22 -5 52 2 16 17 6 18 -13z
m3 -85 c-7 -8 -9 -15 -5 -15 4 0 2 -6 -4 -13 -6 -8 -20 -13 -31 -12 -25 2 -39
15 -16 15 9 0 19 7 22 15 4 8 10 13 14 10 5 -3 11 -1 15 5 3 5 9 10 12 10 3 0
0 -7 -7 -15z m3248 -54 c-7 -11 -19 -21 -28 -21 -10 0 -7 5 7 15 14 10 20 22
16 33 -5 13 -3 14 6 6 10 -9 10 -16 -1 -33z m-23 9 c-3 -5 -12 -10 -18 -10 -7
0 -6 4 3 10 19 12 23 12 15 0z m-3070 -19 c-3 -5 -1 -12 5 -16 5 -3 10 -11 10
-18 0 -6 -7 -2 -15 9 -17 23 -19 34 -4 34 5 0 8 -4 4 -9z m-145 -17 c0 0 -10
-9 -22 -20 -21 -19 -21 -19 -14 0 5 16 4 17 -9 6 -14 -11 -22 -1 -9 12 4 5 54
6 54 2z m3205 -12 c-3 -3 -11 0 -18 7 -9 10 -8 11 6 5 10 -3 15 -9 12 -12z
m-3001 -42 c-5 -5 -10 3 -11 18 -1 22 0 24 9 8 6 -10 6 -22 2 -26z m2984 15
c-3 -3 -9 2 -12 12 -6 14 -5 15 5 6 7 -7 10 -15 7 -18z m-20 -10 c-3 -3 -9 2
-12 12 -6 14 -5 15 5 6 7 -7 10 -15 7 -18z m-47 -8 c-10 -9 -11 -8 -5 6 3 10
9 15 12 12 3 -3 0 -11 -7 -18z m-2937 -13 c3 -8 2 -12 -4 -9 -6 3 -10 10 -10
16 0 14 7 11 14 -7z m3001 6 c-3 -5 -1 -10 6 -10 7 0 10 -2 7 -5 -3 -3 -13 -2
-22 1 -14 5 -15 9 -4 15 17 11 20 11 13 -1z m-2910 -20 c10 -11 16 -20 13 -20
-3 0 -13 9 -23 20 -10 11 -16 20 -13 20 3 0 13 -9 23 -20z m2859 2 c3 -5 -1
-9 -9 -9 -8 0 -12 4 -9 9 3 4 7 8 9 8 2 0 6 -4 9 -8z m-3106 -36 c4 -21 -4
-20 -34 3 l-25 20 28 -3 c16 -2 29 -10 31 -20z m208 12 c3 -4 -1 -5 -10 -4 -8
1 -18 5 -22 8 -3 4 1 5 10 4 8 -1 18 -5 22 -8z m2958 -12 c-6 -16 -24 -13 -24
5 0 6 5 7 10 4 6 -3 10 -1 10 6 0 7 2 10 5 7 3 -3 3 -13 -1 -22z m-108 -6 c0
-12 -4 -16 -9 -11 -5 5 -6 14 -3 20 10 15 12 14 12 -9z m54 0 c0 -4 -6 -10
-13 -13 -7 -3 -13 3 -13 13 0 10 6 16 13 13 7 -3 13 -9 13 -13z m-2910 -15 c0
-2 -7 -1 -17 2 -12 5 -14 3 -8 -8 5 -8 4 -11 0 -6 -5 4 -10 14 -11 22 -2 12 2
12 17 5 10 -6 19 -13 19 -15z m35 -3 c-3 -3 0 -11 6 -19 17 -20 5 -16 -14 5
-15 16 -15 19 -2 19 8 0 13 -3 10 -5z m2875 -36 c-15 -19 -30 -12 -29 12 0 14
2 14 8 -2 5 -14 10 -16 15 -8 4 7 4 18 0 25 -5 9 -4 9 6 0 11 -10 11 -15 0
-27z m-2917 9 c-3 -9 -8 -14 -10 -11 -3 3 -2 9 2 15 9 16 15 13 8 -4z m2807 5
c0 -5 -5 -10 -11 -10 -5 0 -7 5 -4 10 3 6 8 10 11 10 2 0 4 -4 4 -10z m56 -7
c-1 -7 -6 -16 -10 -20 -4 -4 -6 -1 -4 7 2 8 -3 14 -9 13 -7 -2 -13 1 -13 6 0
6 8 9 19 8 10 0 18 -7 17 -14z m-2780 -25 c5 4 6 3 2 -2 -4 -5 -3 -14 2 -21 7
-8 5 -12 -5 -12 -7 0 -14 3 -13 6 2 19 -4 24 -12 11 -7 -12 -9 -10 -7 7 1 15
5 19 13 13 6 -6 15 -6 20 -2z m-218 -10 c10 -10 15 -10 22 2 9 14 14 7 11 -13
-1 -4 6 -10 14 -13 19 -8 19 -21 0 -21 -8 0 -12 4 -10 8 6 8 -24 21 -34 15 -4
-3 -12 4 -19 15 -14 21 -3 26 16 7z m2962 8 c0 -2 -7 -7 -16 -10 -8 -3 -12 -2
-9 4 6 10 25 14 25 6z m60 -11 c0 -8 -2 -15 -4 -15 -2 0 -6 7 -10 15 -3 8 -1
15 4 15 6 0 10 -7 10 -15z m-103 -37 c0 -13 -1 -17 -4 -10 -3 6 -10 9 -16 5
-7 -4 -6 1 2 10 17 21 17 21 18 -5z m-2721 0 c4 -7 3 -8 -4 -4 -7 4 -12 2 -12
-5 0 -7 -3 -10 -6 -6 -6 5 3 27 11 27 2 0 7 -5 11 -12z m-102 -17 c3 -5 -2
-15 -12 -22 -15 -12 -16 -12 -5 2 7 9 10 19 6 22 -3 4 -4 7 0 7 3 0 8 -4 11
-9z m126 -1 c-15 -9 -13 -11 12 -14 6 0 13 -8 15 -16 4 -12 3 -12 -5 -2 -5 8
-11 13 -13 12 -2 -1 -12 2 -22 6 -15 5 -16 9 -5 15 7 5 18 9 23 9 6 0 3 -5 -5
-10z m45 0 c3 -6 -1 -7 -9 -4 -18 7 -21 14 -7 14 6 0 13 -4 16 -10z m55 0 c0
-5 -5 -10 -11 -10 -5 0 -7 5 -4 10 3 6 8 10 11 10 2 0 4 -4 4 -10z m2535 2
c-3 -3 1 -12 7 -21 10 -12 7 -12 -8 2 -11 9 -24 14 -29 10 -4 -5 -5 -3 -2 3 3
6 13 11 22 11 8 0 13 -3 10 -5z m57 -54 c-7 -7 -12 -8 -12 -2 0 14 12 26 19
19 2 -3 -1 -11 -7 -17z m-2767 -2 c6 3 18 -3 26 -13 12 -16 12 -17 -2 -6 -11
9 -19 9 -26 2 -8 -8 -15 -5 -23 12 -10 19 -10 22 0 12 7 -6 18 -9 25 -7z m188
1 c4 3 7 1 7 -5 0 -18 -27 -14 -34 4 -5 13 -4 14 7 6 8 -7 17 -9 20 -5z m2487
-9 c0 -6 -3 -8 -7 -5 -3 4 -13 1 -22 -6 -14 -11 -14 -10 -2 6 15 20 31 22 31
5z m40 -8 c0 -5 -8 -10 -17 -10 -15 0 -16 2 -3 10 19 12 20 12 20 0z m-2610
-43 c7 2 7 -11 1 -35 -1 -2 -9 1 -18 6 -9 5 -17 22 -18 37 -1 24 0 25 13 8 7
-10 17 -17 22 -16z m2507 18 c0 -8 -4 -15 -9 -15 -10 0 -11 14 -1 23 9 10 10
9 10 -8z m-2342 -13 c-3 -3 -11 0 -18 7 -9 10 -8 11 6 5 10 -3 15 -9 12 -12z
m2383 -7 c-3 -3 -9 2 -12 12 -6 14 -5 15 5 6 7 -7 10 -15 7 -18z m49 6 c10
-16 9 -22 -3 -32 -13 -10 -17 -10 -25 2 -5 8 -9 9 -9 3 0 -6 10 -19 23 -28 12
-8 15 -13 6 -10 -10 3 -20 0 -24 -6 -5 -8 -11 -8 -21 1 -10 8 -14 8 -14 0 0
-6 -4 -11 -9 -11 -10 0 -9 19 2 37 4 7 0 16 -9 21 -15 8 -15 10 0 15 10 4 15
3 11 -3 -3 -6 -1 -10 5 -10 7 0 10 -7 6 -15 -9 -25 2 -17 18 13 8 15 15 21 16
14 0 -7 5 -10 10 -7 8 5 7 11 -1 21 -6 8 -7 14 -3 14 5 0 15 -9 21 -19z
m-2373 -13 c-3 -4 -11 -5 -19 -1 -21 7 -19 12 4 10 11 0 18 -5 15 -9z m2257
-5 c13 -16 12 -17 -3 -4 -17 13 -22 21 -14 21 2 0 10 -8 17 -17z m181 -1 c-7
-2 -12 -10 -12 -18 0 -8 -5 -14 -10 -14 -13 0 -9 32 5 42 5 4 14 4 19 1 6 -4
5 -8 -2 -11z m-2452 -45 c0 -4 6 -5 13 -1 10 6 10 4 0 -7 -19 -19 -16 -34 4
-18 13 11 17 11 20 1 3 -6 9 -10 14 -7 5 4 6 -1 2 -10 -5 -13 -7 -14 -14 -3
-7 10 -9 10 -9 -2 0 -12 -2 -12 -9 -2 -4 8 -11 13 -15 13 -24 -3 -29 0 -19 10
9 9 8 20 -3 43 -14 28 -14 29 1 12 8 -11 15 -24 15 -29z m44 35 c3 -5 -1 -9
-9 -9 -8 0 -12 4 -9 9 3 4 7 8 9 8 2 0 6 -4 9 -8z m2161 -2 c3 -6 -1 -7 -9 -4
-18 7 -21 14 -7 14 6 0 13 -4 16 -10z m-110 -9 c3 -5 2 -12 -3 -15 -5 -3 -9 1
-9 9 0 17 3 19 12 6z m-2203 -30 c16 -17 17 -21 4 -11 -10 8 -26 15 -34 15 -8
0 -17 5 -19 11 -7 21 27 11 49 -15z m2325 -21 c-2 -9 -10 -28 -18 -40 -15 -23
-16 -23 -39 -7 -16 11 -19 17 -10 17 12 0 13 2 1 9 -10 7 -11 12 -1 27 9 15
10 15 6 2 -2 -9 2 -22 9 -28 8 -7 12 -17 8 -23 -3 -6 -1 -7 5 -3 8 5 9 13 3
25 -6 10 -6 23 -1 31 5 9 4 20 -3 29 -8 10 -3 9 15 -3 16 -11 26 -25 25 -36z
m-2145 26 c7 4 8 2 4 -4 -11 -18 -26 -14 -25 6 0 10 3 12 6 4 2 -6 10 -9 15
-6z m85 -11 c0 -8 -4 -12 -9 -9 -5 3 -6 10 -3 15 9 13 12 11 12 -6z m-40 -10
c0 -8 -4 -15 -9 -15 -10 0 -11 14 -1 23 9 10 10 9 10 -8z m76 -20 c-3 -9 -8
-14 -10 -11 -3 3 -2 9 2 15 9 16 15 13 8 -4z m1844 -5 c1 -11 -2 -20 -7 -20
-6 0 -7 17 -1 38 3 8 7 -1 8 -18z m-1816 -3 c-6 -8 -7 -18 -3 -22 4 -5 1 -5
-6 -1 -10 6 -10 11 -1 22 6 8 14 14 16 14 3 0 0 -6 -6 -13z m-81 -17 c0 -5 5
-10 11 -10 5 0 7 5 4 10 -4 6 3 6 18 -1 13 -6 24 -18 24 -26 0 -14 -2 -14 -12
1 -12 16 -31 23 -21 8 3 -5 -1 -9 -9 -9 -8 0 -15 5 -15 11 0 6 -5 5 -12 -2 -7
-7 -19 -12 -27 -12 -11 0 -10 4 4 20 20 22 35 26 35 10z m220 4 c0 -8 -19 -13
-24 -6 -3 5 1 9 9 9 8 0 15 -2 15 -3z m90 -20 c0 -8 -19 -13 -24 -6 -3 5 1 9
9 9 8 0 15 -2 15 -3z m1467 -10 c-3 -3 -12 -4 -19 -1 -8 3 -5 6 6 6 11 1 17
-2 13 -5z m-57 -8 c0 -3 -4 -8 -10 -11 -5 -3 -10 -1 -10 4 0 6 5 11 10 11 6 0
10 -2 10 -4z m119 -10 c8 -10 5 -12 -12 -11 -12 1 -26 0 -32 -4 -5 -3 -16 -6
-23 -7 -10 -2 -10 2 2 15 19 20 51 24 65 7z m-1517 -10 c10 6 11 4 0 -7 -10
-11 -15 -10 -30 6 -15 17 -15 18 0 6 9 -7 23 -9 30 -5z m-122 -7 c0 -5 5 -9
11 -9 5 0 7 5 4 10 -3 6 -1 10 4 10 6 0 11 -4 11 -9 0 -16 -21 -24 -32 -13 -6
6 -17 8 -24 5 -8 -3 -14 -1 -14 4 0 5 9 9 20 10 11 1 20 -2 20 -8z m176 -4
c-3 -8 0 -15 6 -15 6 0 9 -3 5 -6 -10 -11 -26 6 -20 21 3 8 7 15 10 15 3 0 3
-7 -1 -15z m1281 1 c-7 -17 16 -39 28 -28 5 4 5 1 0 -6 -6 -11 -10 -11 -23 2
-14 14 -18 14 -36 -2 -21 -19 -13 0 13 29 20 22 25 23 18 5z m-1297 -31 l25
-14 -30 3 c-16 2 -31 8 -33 15 -5 15 7 14 38 -4z m144 -7 c-3 -4 -9 -8 -15 -8
-5 0 -9 4 -9 8 0 5 7 9 15 9 8 0 12 -4 9 -9z m961 2 c-3 -5 -12 -10 -18 -10
-7 0 -6 4 3 10 19 12 23 12 15 0z m-945 -26 c0 -8 -5 -12 -10 -9 -6 4 -8 11
-5 16 9 14 15 11 15 -7z m195 6 c3 -5 1 -10 -4 -10 -6 0 -11 5 -11 10 0 6 2
10 4 10 3 0 8 -4 11 -10z m165 6 c0 -3 -4 -8 -10 -11 -5 -3 -10 -1 -10 4 0 6
5 11 10 11 6 0 10 -2 10 -4z m620 0 c0 -2 -7 -6 -15 -10 -8 -3 -15 -1 -15 4 0
6 7 10 15 10 8 0 15 -2 15 -4z m-251 -19 c8 -10 7 -14 -2 -14 -8 0 -14 6 -14
14 0 7 1 13 2 13 2 0 8 -6 14 -13z m-222 -14 c0 -9 -4 -10 -14 -2 -7 6 -13 12
-13 14 0 1 6 2 13 2 8 0 14 -6 14 -14z m148 -3 c-6 -9 -44 -5 -54 6 -3 4 2 4
11 1 10 -3 20 -2 23 4 4 5 11 7 16 3 5 -3 7 -9 4 -14z"/>
<path d="M3786 581 c-4 -5 -2 -12 3 -15 5 -4 12 -2 15 3 4 5 2 12 -3 15 -5 4
-12 2 -15 -3z"/>
<path d="M3636 545 c-3 -8 -1 -15 5 -15 6 0 7 -6 3 -12 -4 -7 -3 -10 1 -5 11
9 14 47 4 47 -4 0 -9 -7 -13 -15z"/>
<path d="M4289 1397 c6 -8 7 -18 3 -22 -4 -5 -1 -5 6 -1 10 6 10 11 1 22 -6 8
-14 14 -16 14 -3 0 0 -6 6 -13z"/>
<path d="M4253 1333 c4 -6 1 -14 -5 -16 -10 -4 -10 -6 0 -6 7 -1 10 -6 6 -13
-4 -6 -3 -8 4 -5 12 8 10 32 -3 44 -4 4 -5 3 -2 -4z"/>
<path d="M775 1320 c3 -5 8 -10 11 -10 2 0 4 5 4 10 0 6 -5 10 -11 10 -5 0 -7
-4 -4 -10z"/>
<path d="M800 1300 c-9 -6 -10 -10 -3 -10 6 0 15 5 18 10 8 12 4 12 -15 0z"/>
<path d="M870 1299 c0 -5 5 -7 10 -4 6 3 10 8 10 11 0 2 -4 4 -10 4 -5 0 -10
-5 -10 -11z"/>
<path d="M4231 1284 c-1 -30 22 -37 42 -13 9 10 13 19 7 19 -5 0 -13 -8 -19
-17 -9 -16 -11 -16 -20 7 -9 23 -10 23 -10 4z"/>
<path d="M4330 1280 c0 -5 5 -10 11 -10 5 0 7 5 4 10 -3 6 -8 10 -11 10 -2 0
-4 -4 -4 -10z"/>
<path d="M855 1260 c3 -5 14 -10 23 -10 15 0 15 2 2 10 -20 13 -33 13 -25 0z"/>
<path d="M4277 1257 c-3 -8 -2 -20 3 -26 5 -9 8 -4 8 13 0 29 -3 32 -11 13z"/>
<path d="M810 1254 c0 -2 9 -8 20 -14 11 -6 20 -7 20 -2 0 6 -9 12 -20 15 -11
3 -20 3 -20 1z"/>
<path d="M4219 1247 c0 -1 -2 -11 -4 -22 -6 -36 -10 -50 -18 -62 -4 -6 -3 -15
3 -18 8 -5 7 -11 -1 -21 -6 -8 -9 -14 -5 -14 4 0 0 -10 -7 -22 -12 -19 -15
-53 -8 -90 0 -4 7 -5 15 -2 8 3 17 1 21 -5 4 -7 0 -8 -11 -4 -14 5 -16 3 -11
-11 4 -10 3 -15 -3 -11 -5 3 -7 -3 -5 -14 2 -10 -3 -27 -11 -38 -9 -10 -12
-12 -8 -4 4 8 3 12 -2 8 -6 -3 -10 3 -11 13 -1 11 3 22 8 25 5 4 7 11 3 16 -3
6 -12 2 -20 -10 -11 -16 -12 -26 -4 -41 12 -23 4 -44 -12 -34 -7 4 -8 2 -4 -4
4 -7 1 -12 -6 -12 -8 0 -9 -3 -3 -8 6 -4 10 -11 10 -17 0 -15 -35 -61 -35 -47
0 7 -5 10 -11 6 -8 -4 -7 -9 2 -15 11 -7 11 -9 -1 -9 -13 0 -13 -2 0 -11 13
-9 13 -10 -1 -6 -9 3 -23 0 -30 -6 -7 -7 -5 -2 5 11 11 12 16 22 11 22 -4 0 1
12 10 28 l18 27 -26 -24 c-15 -14 -23 -29 -20 -39 4 -10 2 -13 -6 -8 -6 4 -10
4 -9 -1 4 -14 -23 -54 -33 -48 -5 4 -9 3 -8 -2 3 -19 -2 -34 -10 -28 -5 3 -12
1 -16 -4 -3 -6 4 -8 17 -5 55 13 68 12 68 -4 0 -13 2 -13 13 3 8 10 19 15 26
11 7 -4 15 3 21 18 9 25 33 37 28 15 -2 -6 4 -14 12 -16 9 -3 11 -1 5 4 -14
11 -12 39 3 35 7 -1 12 2 12 8 0 12 -17 13 -24 1 -9 -14 -54 -10 -52 5 3 18
16 31 16 16 0 -7 7 -12 16 -12 11 0 14 6 9 23 -6 20 -5 21 8 4 13 -15 15 -16
21 -2 3 8 11 15 17 15 8 0 9 -4 0 -13 -8 -10 -4 -18 17 -34 25 -19 28 -19 28
-3 0 11 -6 16 -15 12 -9 -3 -12 -1 -7 6 5 8 1 10 -11 5 -15 -6 -16 -4 -5 9 14
17 0 34 -18 23 -5 -3 -10 -1 -10 4 0 11 13 15 38 12 6 -1 12 5 12 14 0 8 -5
15 -11 15 -5 0 -7 -4 -4 -10 3 -6 -1 -7 -10 -4 -12 5 -13 10 -4 20 6 8 15 11
20 8 5 -3 10 0 10 5 3 26 4 30 12 37 4 4 7 2 7 -5 0 -7 5 -9 10 -6 6 3 10 1
10 -4 0 -6 5 -11 11 -11 6 0 4 9 -4 21 -13 18 -13 59 1 59 3 0 14 -8 24 -17
17 -15 18 -15 13 -1 -7 18 -32 31 -45 23 -5 -3 -11 -1 -15 5 -3 5 1 10 9 10
18 0 21 16 6 25 -13 8 6 35 23 35 8 0 8 -3 0 -11 -6 -6 -9 -18 -6 -28 5 -19
43 -47 43 -31 0 5 -5 10 -11 10 -5 0 -7 5 -3 12 4 7 3 8 -4 4 -7 -4 -12 -3
-12 3 0 6 9 15 21 22 19 10 20 9 14 -13 -5 -20 -4 -20 5 -5 14 22 5 38 -18 30
-14 -6 -15 -4 -6 8 9 11 9 17 -3 28 -13 12 -14 11 -8 -10 7 -21 6 -22 -8 -11
-8 7 -20 11 -27 10 -7 -2 -14 2 -17 9 -3 8 3 11 16 8 10 -2 22 3 25 11 3 8 13
11 23 8 17 -5 17 -5 1 6 -16 10 -16 13 -3 34 8 12 12 26 8 31 -5 4 -1 6 8 3 9
-4 16 -1 16 7 0 17 -27 5 -48 -21 -11 -15 -11 -16 0 -10 9 6 12 5 9 -4 -5 -16
-31 -21 -49 -9 -9 5 -10 9 -2 9 6 0 25 13 41 29 23 24 25 29 11 28 -10 -1 -16
-3 -14 -5 2 -2 -2 -10 -8 -17 -19 -21 -29 -5 -13 20 14 21 13 23 -10 33 -13 7
-24 11 -25 9z m31 -28 c0 -5 -4 -9 -9 -9 -10 0 -9 -19 2 -36 4 -7 -1 -15 -11
-19 -16 -6 -16 -7 2 -20 10 -8 22 -12 27 -10 4 3 10 1 14 -4 3 -6 -4 -15 -15
-21 -11 -6 -20 -7 -20 -3 0 4 -5 2 -12 -5 -14 -14 8 -45 26 -35 6 3 3 -2 -6
-13 -14 -16 -15 -23 -5 -34 9 -10 9 -11 0 -6 -7 4 -13 2 -13 -4 0 -6 -11 -4
-25 6 -21 14 -23 19 -13 31 17 21 22 56 6 47 -9 -5 -9 -2 1 9 7 9 10 17 6 17
-4 0 -2 6 4 14 9 10 9 16 1 21 -8 5 -8 11 -1 19 6 7 8 16 4 19 -3 4 -1 7 4 7
6 0 10 11 9 24 -2 17 1 23 10 19 8 -3 14 -9 14 -14z m-15 -272 c1 -14 -2 -24
-5 -22 -3 2 -14 -3 -25 -11 -11 -9 -14 -14 -6 -14 8 0 2 -9 -13 -21 -14 -11
-24 -24 -21 -29 3 -5 0 -12 -6 -15 -5 -4 -8 -14 -4 -22 4 -13 3 -14 -9 -4 -17
14 -31 -2 -20 -21 5 -10 4 -10 -6 -1 -11 10 -11 16 3 31 9 10 14 22 10 25 -3
4 -1 7 6 7 7 0 10 4 7 9 -3 5 8 23 25 40 16 17 27 36 24 41 -3 5 -1 11 5 15 6
4 8 10 5 15 -3 4 3 7 12 6 12 -2 18 -12 18 -29z m-126 -202 c5 3 4 -5 -2 -18
-7 -16 -19 -22 -44 -23 -18 0 -33 4 -33 9 0 5 -8 3 -17 -4 -15 -11 -15 -10 1
8 10 13 22 20 26 18 4 -3 11 2 14 10 4 13 10 14 26 5 11 -6 24 -8 29 -5z"/>
<path d="M4219 1128 c-8 -27 -6 -38 5 -29 7 6 17 7 22 3 4 -4 2 1 -5 11 -12
16 -20 21 -22 15z"/>
<path d="M4213 1065 c4 -4 0 -16 -8 -25 -13 -14 -13 -18 -2 -23 7 -3 19 3 25
13 9 15 8 21 -6 31 -9 7 -14 9 -9 4z"/>
<path d="M4203 935 c0 -8 4 -12 9 -9 5 3 6 10 3 15 -9 13 -12 11 -12 -6z"/>
<path d="M4164 878 l-19 -23 23 19 c21 18 27 26 19 26 -2 0 -12 -10 -23 -22z"/>
<path d="M4063 744 c4 -4 1 -14 -6 -23 -11 -14 -10 -15 8 -1 11 8 21 15 23 16
2 1 -5 5 -15 8 -9 4 -14 4 -10 0z"/>
<path d="M4300 1246 c3 -3 18 -7 34 -10 16 -3 25 -2 22 1 -4 4 -19 9 -34 11
-15 2 -24 1 -22 -2z"/>
<path d="M799 1238 c-4 -12 -5 -57 0 -53 6 6 10 55 4 55 -1 0 -3 -1 -4 -2z"/>
<path d="M715 1209 c-4 -6 -5 -12 -2 -15 2 -3 7 2 10 11 7 17 1 20 -8 4z"/>
<path d="M4337 1199 c4 -13 8 -18 11 -10 2 7 -1 18 -6 23 -8 8 -9 4 -5 -13z"/>
<path d="M4406 1178 c3 -5 10 -6 15 -3 13 9 11 12 -6 12 -8 0 -12 -4 -9 -9z"/>
<path d="M736 1158 c3 -5 10 -6 15 -3 13 9 11 12 -6 12 -8 0 -12 -4 -9 -9z"/>
<path d="M4335 1160 c-4 -6 -3 -10 2 -9 20 3 27 -2 13 -11 -12 -7 -10 -9 7 -7
21 1 21 2 6 19 -19 21 -20 21 -28 8z"/>
<path d="M4410 1139 c0 -5 5 -7 10 -4 6 3 10 8 10 11 0 2 -4 4 -10 4 -5 0 -10
-5 -10 -11z"/>
<path d="M673 1125 c0 -8 4 -12 9 -9 5 3 6 10 3 15 -9 13 -12 11 -12 -6z"/>
<path d="M929 1127 c-3 -15 -7 -27 -9 -29 -1 -2 -3 -16 -4 -33 -1 -21 6 -38
24 -55 14 -13 27 -23 30 -22 3 1 5 -5 5 -14 0 -9 9 -22 19 -30 18 -13 18 -14
2 -14 -9 0 -14 -4 -11 -10 3 -5 1 -10 -4 -10 -6 0 -11 4 -11 8 0 4 -9 8 -20 9
-11 1 -20 -2 -20 -8 0 -5 3 -8 8 -8 27 5 34 -1 21 -18 -8 -10 -9 -14 -2 -10
12 7 26 -7 29 -31 2 -8 6 -17 10 -20 4 -4 4 2 0 13 -5 14 1 11 19 -10 15 -16
23 -24 20 -17 -4 7 -2 19 5 27 12 14 -2 31 -19 21 -4 -3 -19 3 -31 14 -13 11
-19 20 -14 20 5 0 18 7 28 15 18 14 18 16 2 34 -9 10 -16 24 -14 31 2 6 -6 17
-17 23 -29 17 -44 39 -37 56 3 8 1 12 -5 8 -5 -3 -10 0 -10 8 0 11 4 12 13 4
10 -8 12 -5 10 15 -3 25 -15 47 -17 33z"/>
<path d="M4300 1126 c0 -2 7 -6 15 -10 8 -3 15 -1 15 4 0 6 -7 10 -15 10 -8 0
-15 -2 -15 -4z"/>
<path d="M761 1113 c-1 -17 16 -25 25 -12 4 7 3 9 -4 5 -5 -3 -13 0 -15 6 -4
9 -6 10 -6 1z"/>
<path d="M4335 1100 c-3 -6 1 -7 9 -4 18 7 21 14 7 14 -6 0 -13 -4 -16 -10z"/>
<path d="M4376 1087 c3 -10 9 -15 12 -12 3 3 0 11 -7 18 -10 9 -11 8 -5 -6z"/>
<path d="M734 1077 c-4 -6 -4 -9 1 -5 4 4 14 3 22 -4 7 -6 15 -9 18 -7 2 3 -4
10 -15 17 -15 9 -21 9 -26 -1z"/>
<path d="M4318 1077 c12 -7 19 -17 15 -22 -4 -4 -2 -5 6 0 12 7 11 10 -4 22
-11 7 -24 13 -29 13 -6 -1 -1 -6 12 -13z"/>
<path d="M947 1056 c-4 -10 -1 -13 9 -9 7 3 14 9 14 14 0 14 -17 10 -23 -5z"/>
<path d="M4410 1059 c0 -5 5 -7 10 -4 6 3 10 8 10 11 0 2 -4 4 -10 4 -5 0 -10
-5 -10 -11z"/>
<path d="M738 1048 c12 -16 35 -18 48 -6 3 4 -2 5 -13 4 -10 -2 -25 2 -33 8
-13 9 -13 9 -2 -6z"/>
<path d="M716 1022 c-3 -5 1 -9 9 -9 8 0 12 4 9 9 -3 4 -7 8 -9 8 -2 0 -6 -4
-9 -8z"/>
<path d="M675 1011 c-3 -5 -2 -12 3 -15 5 -3 9 1 9 9 0 17 -3 19 -12 6z"/>
<path d="M4394 1000 c0 -13 4 -16 10 -10 7 7 7 13 0 20 -6 6 -10 3 -10 -10z"/>
<path d="M4131 984 c-24 -31 -28 -52 -6 -34 8 7 13 16 10 20 -3 4 3 11 12 14
9 4 20 1 25 -6 9 -15 11 -6 2 16 -9 23 -19 20 -43 -10z"/>
<path d="M4350 1005 c0 -5 5 -17 10 -25 5 -8 10 -10 10 -5 0 6 -5 17 -10 25
-5 8 -10 11 -10 5z"/>
<path d="M4430 1006 c0 -2 7 -7 16 -10 8 -3 12 -2 9 4 -6 10 -25 14 -25 6z"/>
<path d="M922 995 c4 -5 3 -15 -4 -22 -9 -11 -9 -16 2 -23 8 -5 18 -6 22 -4 4
3 8 1 8 -4 0 -5 7 -9 15 -9 9 0 14 5 12 11 -3 6 -10 10 -16 9 -6 -2 -11 3 -11
10 0 8 -4 7 -11 -3 -9 -13 -10 -13 -6 0 2 8 11 14 21 12 9 -2 16 3 16 9 0 7
-3 9 -6 6 -4 -3 -16 -1 -28 5 -11 6 -18 7 -14 3z"/>
<path d="M795 970 c-4 -6 -10 -8 -15 -5 -5 3 -11 1 -14 -4 -8 -12 14 -8 39 7
11 6 15 12 8 12 -6 0 -15 -5 -18 -10z"/>
<path d="M4321 973 c-1 -6 -4 -20 -7 -30 -5 -17 -5 -17 6 0 6 10 9 23 6 30 -3
9 -5 9 -5 0z"/>
<path d="M4395 960 c3 -5 8 -10 11 -10 2 0 4 5 4 10 0 6 -5 10 -11 10 -5 0 -7
-4 -4 -10z"/>
<path d="M4436 953 c-6 -14 -5 -15 5 -6 7 7 10 15 7 18 -3 3 -9 -2 -12 -12z"/>
<path d="M4167 953 c-10 -9 -9 -23 1 -23 5 0 9 7 9 15 0 17 -1 18 -10 8z"/>
<path d="M808 943 c6 -2 9 -10 6 -15 -4 -7 -2 -8 5 -4 13 9 5 26 -12 25 -9 0
-8 -2 1 -6z"/>
<path d="M4261 945 c-1 -21 14 -34 29 -25 13 8 13 10 -2 10 -9 0 -19 6 -21 13
-3 6 -6 8 -6 2z"/>
<path d="M775 929 c-4 -6 -5 -12 -2 -15 2 -3 7 2 10 11 7 17 1 20 -8 4z"/>
<path d="M836 925 c-3 -8 -1 -15 4 -15 6 0 10 7 10 15 0 8 -2 15 -4 15 -2 0
-6 -7 -10 -15z"/>
<path d="M4333 927 c0 -16 34 -20 43 -5 4 7 2 8 -5 4 -6 -4 -18 -3 -25 3 -9 8
-13 7 -13 -2z"/>
<path d="M4226 874 c-4 -9 -4 -19 -1 -22 3 -3 5 0 5 7 0 7 5 9 10 6 6 -3 10
-2 10 4 0 18 -18 21 -24 5z"/>
<path d="M4274 879 c-3 -6 -1 -16 5 -22 9 -9 10 -7 5 8 -7 18 -6 19 9 6 15
-12 17 -12 11 3 -7 18 -20 21 -30 5z"/>
<path d="M826 863 c-6 -14 -5 -15 5 -6 7 7 10 15 7 18 -3 3 -9 -2 -12 -12z"/>
<path d="M854 862 c3 -5 1 -12 -6 -14 -8 -3 -9 -6 -1 -11 6 -4 13 0 17 8 3 8
0 17 -6 21 -6 4 -8 3 -4 -4z"/>
<path d="M789 843 c-13 -16 -12 -17 4 -4 9 7 17 15 17 17 0 8 -8 3 -21 -13z"/>
<path d="M4235 840 c-13 -6 -15 -9 -5 -9 8 0 22 4 30 9 18 12 2 12 -25 0z"/>
<path d="M874 805 c1 -13 6 -28 10 -32 5 -4 6 -3 3 4 -4 6 -1 14 5 16 10 4 10
6 1 6 -7 1 -10 8 -7 16 4 8 2 15 -3 15 -6 0 -9 -11 -9 -25z"/>
<path d="M4210 811 c0 -6 4 -13 10 -16 6 -3 7 1 4 9 -7 18 -14 21 -14 7z"/>
<path d="M4256 798 c3 -5 10 -6 15 -3 13 9 11 12 -6 12 -8 0 -12 -4 -9 -9z"/>
<path d="M4293 791 c0 -11 5 -18 9 -15 4 3 5 11 1 19 -7 21 -12 19 -10 -4z"/>
<path d="M1072 773 c5 -7 14 -10 20 -7 5 3 15 0 23 -6 10 -8 15 -9 15 -2 0 15
-21 27 -47 27 -17 1 -20 -2 -11 -12z"/>
<path d="M913 758 c1 -7 -5 -11 -13 -10 -8 2 -11 0 -7 -4 15 -15 33 -11 34 7
1 11 -2 19 -8 19 -5 0 -8 -6 -6 -12z"/>
<path d="M940 736 c0 -2 7 -7 16 -10 8 -3 12 -2 9 4 -6 10 -25 14 -25 6z"/>
<path d="M981 724 c0 -11 3 -14 6 -6 3 7 2 16 -1 19 -3 4 -6 -2 -5 -13z"/>
<path d="M944 702 c4 -3 14 -7 22 -8 9 -1 13 0 10 4 -4 3 -14 7 -22 8 -9 1
-13 0 -10 -4z"/>
<path d="M995 700 c-3 -5 -1 -10 4 -10 6 0 11 5 11 10 0 6 -2 10 -4 10 -3 0
-8 -4 -11 -10z"/>
<path d="M1166 701 c-9 -14 18 -31 33 -22 11 7 9 11 -7 20 -12 6 -23 7 -26 2z"/>
<path d="M1030 680 c0 -5 5 -10 10 -10 6 0 10 5 10 10 0 6 -4 10 -10 10 -5 0
-10 -4 -10 -10z"/>
<path d="M4123 679 c9 -6 14 -15 11 -21 -4 -7 -2 -8 5 -4 14 9 -3 36 -23 36
-6 0 -3 -5 7 -11z"/>
<path d="M4067 667 c-3 -8 1 -14 8 -14 7 0 11 6 8 14 -3 7 -6 13 -8 13 -2 0
-5 -6 -8 -13z"/>
<path d="M1081 644 c0 -11 3 -14 6 -6 3 7 2 16 -1 19 -3 4 -6 -2 -5 -13z"/>
<path d="M1055 631 c-3 -5 -2 -12 3 -15 5 -3 9 1 9 9 0 17 -3 19 -12 6z"/>
<path d="M3975 621 c-3 -5 0 -13 6 -17 8 -5 9 -3 4 6 -6 10 -4 12 9 7 10 -4
15 -3 11 3 -8 13 -22 13 -30 1z"/>
<path d="M1106 599 c2 -4 13 -7 24 -6 23 2 17 10 -10 12 -10 1 -17 -2 -14 -6z"/>
<path d="M1233 555 c0 -8 4 -12 9 -9 5 3 6 10 3 15 -9 13 -12 11 -12 -6z"/>
<path d="M3946 558 c3 -5 10 -6 15 -3 13 9 11 12 -6 12 -8 0 -12 -4 -9 -9z"/>
<path d="M3893 545 c0 -8 4 -12 9 -9 5 3 6 10 3 15 -9 13 -12 11 -12 -6z"/>
<path d="M1146 522 c-3 -5 1 -9 9 -9 8 0 12 4 9 9 -3 4 -7 8 -9 8 -2 0 -6 -4
-9 -8z"/>
<path d="M3783 519 c9 -6 14 -15 11 -21 -4 -7 -2 -8 5 -4 14 9 -3 36 -23 36
-6 0 -3 -5 7 -11z"/>
<path d="M1410 510 c0 -9 39 -25 45 -18 2 2 -7 8 -21 15 -13 6 -24 7 -24 3z"/>
<path d="M3689 487 c6 -14 7 -28 3 -33 -4 -4 -2 -4 5 -1 12 7 7 44 -8 53 -5 3
-5 -6 0 -19z"/>
<path d="M3755 500 c-3 -5 -1 -10 4 -10 6 0 11 5 11 10 0 6 -2 10 -4 10 -3 0
-8 -4 -11 -10z"/>
<path d="M1280 480 c-9 -6 -10 -10 -3 -10 6 0 15 5 18 10 8 12 4 12 -15 0z"/>
<path d="M3590 460 c0 -5 5 -10 10 -10 6 0 10 5 10 10 0 6 -4 10 -10 10 -5 0
-10 -4 -10 -10z"/>
<path d="M3530 438 c0 -6 3 -8 7 -5 3 4 13 1 22 -6 14 -11 14 -10 2 6 -15 20
-31 22 -31 5z"/>
<path d="M3457 433 c-10 -9 -9 -23 1 -23 5 0 9 7 9 15 0 17 -1 18 -10 8z"/>
<path d="M1710 419 c0 -5 5 -7 10 -4 6 3 10 8 10 11 0 2 -4 4 -10 4 -5 0 -10
-5 -10 -11z"/>
<path d="M3500 426 c0 -2 8 -10 18 -17 15 -13 16 -12 3 4 -13 16 -21 21 -21
13z"/>
<path d="M3411 404 c0 -11 3 -14 6 -6 3 7 2 16 -1 19 -3 4 -6 -2 -5 -13z"/>
<path d="M1626 402 c-3 -5 1 -9 9 -9 8 0 12 4 9 9 -3 4 -7 8 -9 8 -2 0 -6 -4
-9 -8z"/>
<path d="M3346 402 c-3 -5 1 -9 9 -9 8 0 12 4 9 9 -3 4 -7 8 -9 8 -2 0 -6 -4
-9 -8z"/>
<path d="M1985 391 c-3 -6 -3 -11 2 -11 4 0 2 -4 -6 -9 -9 -6 -10 -11 -2 -15
6 -4 11 -2 11 3 0 6 7 11 16 11 9 0 14 5 12 12 -6 16 -25 21 -33 9z"/>
<path d="M2042 371 c-11 -7 -11 -9 0 -14 9 -3 15 1 15 9 0 8 -1 14 -1 14 -1 0
-7 -4 -14 -9z"/>
<path d="M2984 369 c-7 -11 12 -29 31 -29 6 1 2 5 -8 11 -9 6 -15 14 -12 20 4
5 4 9 1 9 -3 0 -8 -5 -12 -11z"/>
<path d="M3105 369 c-4 -6 -4 -13 -1 -16 3 -4 6 -1 6 6 0 7 5 9 12 5 7 -4 8
-3 4 4 -9 15 -13 15 -21 1z"/>
<path d="M2140 363 c0 -20 16 -23 36 -8 10 8 14 15 7 15 -6 0 -15 -5 -19 -11
-4 -8 -9 -7 -15 2 -6 10 -9 10 -9 2z"/>
<path d="M3030 360 c0 -5 5 -10 11 -10 5 0 7 5 4 10 -3 6 -8 10 -11 10 -2 0
-4 -4 -4 -10z"/>
<path d="M2370 345 c0 -8 4 -15 10 -15 5 0 7 7 4 15 -4 8 -8 15 -10 15 -2 0
-4 -7 -4 -15z"/>
<path d="M2510 341 c0 -6 4 -13 10 -16 6 -3 7 1 4 9 -7 18 -14 21 -14 7z"/>
<path d="M2416 318 c3 -5 10 -6 15 -3 13 9 11 12 -6 12 -8 0 -12 -4 -9 -9z"/>
<path d="M2575 320 c3 -5 8 -10 11 -10 2 0 4 5 4 10 0 6 -5 10 -11 10 -5 0 -7
-4 -4 -10z"/>
</g>
</svg>
